<?xml version="1.0" encoding="UTF-8"?><svg id="Layer_2" xmlns="http://www.w3.org/2000/svg" xmlns:xlink="http://www.w3.org/1999/xlink" viewBox="0 0 1000 1000"><defs><style>.cls-1{clip-path:url(#clippath-6);}.cls-2{clip-path:url(#clippath-7);}.cls-3{clip-path:url(#clippath-15);}.cls-4{clip-path:url(#clippath-4);}.cls-5{clip-path:url(#clippath-9);}.cls-6{clip-path:url(#clippath-10);}.cls-7{clip-path:url(#clippath-11);}.cls-8{fill:none;}.cls-9{clip-path:url(#clippath-1);}.cls-10{clip-path:url(#clippath-5);}.cls-11{clip-path:url(#clippath-8);}.cls-12{clip-path:url(#clippath-3);}.cls-13{clip-path:url(#clippath-12);}.cls-14{clip-path:url(#clippath-14);}.cls-15{clip-path:url(#clippath-16);}.cls-16{clip-path:url(#clippath-2);}.cls-17{clip-path:url(#clippath-13);}.cls-18{clip-path:url(#clippath);}</style><clipPath id="clippath"><rect class="cls-8" width="1000" height="1000"/></clipPath><clipPath id="clippath-1"><rect class="cls-8" x="899.21" y="-203.64" width="304.28" height="304.27"/></clipPath><clipPath id="clippath-2"><rect class="cls-8" x="899.21" y="100.63" width="304.28" height="304.27"/></clipPath><clipPath id="clippath-3"><rect class="cls-8" x="899.21" y="404.9" width="304.28" height="304.27"/></clipPath><clipPath id="clippath-4"><rect class="cls-8" x="899.21" y="709.17" width="304.28" height="304.27"/></clipPath><clipPath id="clippath-5"><rect class="cls-8" x="594.92" y="-203.64" width="304.28" height="304.27"/></clipPath><clipPath id="clippath-6"><rect class="cls-8" x="594.92" y="100.63" width="304.28" height="304.27"/></clipPath><clipPath id="clippath-7"><rect class="cls-8" x="594.92" y="404.9" width="304.28" height="304.27"/></clipPath><clipPath id="clippath-8"><rect class="cls-8" x="594.92" y="709.17" width="304.28" height="304.27"/></clipPath><clipPath id="clippath-9"><rect class="cls-8" x="290.64" y="-203.64" width="304.28" height="304.27"/></clipPath><clipPath id="clippath-10"><rect class="cls-8" x="290.64" y="100.63" width="304.28" height="304.27"/></clipPath><clipPath id="clippath-11"><rect class="cls-8" x="290.64" y="404.9" width="304.28" height="304.27"/></clipPath><clipPath id="clippath-12"><rect class="cls-8" x="290.64" y="709.17" width="304.28" height="304.27"/></clipPath><clipPath id="clippath-13"><rect class="cls-8" x="-13.64" y="-203.64" width="304.28" height="304.27"/></clipPath><clipPath id="clippath-14"><rect class="cls-8" x="-13.64" y="100.63" width="304.28" height="304.27"/></clipPath><clipPath id="clippath-15"><rect class="cls-8" x="-13.64" y="404.9" width="304.28" height="304.27"/></clipPath><clipPath id="clippath-16"><rect class="cls-8" x="-13.64" y="709.17" width="304.28" height="304.27"/></clipPath></defs><g id="Layer_1-2"><g class="cls-18"><g class="cls-9"><polygon points="1047.01 188.38 887.93 29.29 959.69 -42.48 1011.35 9.17 983.23 37.28 957.82 11.87 943.68 26 982.93 65.26 1039.46 8.73 1046.45 15.71 982.93 79.23 929.71 26 957.82 -2.11 983.23 23.31 997.37 9.17 959.69 -28.51 901.9 29.29 1047.01 174.41 1104.81 116.61 1067.13 78.93 1052.99 93.07 1078.41 118.48 1050.3 146.6 997.07 93.37 1060.59 29.85 1067.57 36.84 1011.04 93.37 1050.3 132.62 1064.44 118.48 1039.02 93.07 1067.13 64.96 1118.78 116.61 1047.01 188.38"/><polygon points="982.22 253.16 930.57 201.51 958.68 173.4 984.1 198.82 998.24 184.68 958.98 145.42 902.45 201.96 895.47 194.97 958.98 131.45 1012.21 184.68 984.1 212.79 958.68 187.37 944.54 201.51 982.22 239.19 1040.02 181.39 894.91 36.28 837.11 94.08 874.78 131.75 888.92 117.62 863.51 92.2 891.62 64.09 944.85 117.31 881.33 180.83 874.34 173.84 930.87 117.31 891.62 78.06 877.48 92.2 902.9 117.62 874.78 145.72 823.13 94.08 894.91 22.3 1053.99 181.39 982.22 253.16"/><polygon points="1134.36 101.03 1082.71 49.38 1110.83 21.26 1136.24 46.68 1150.38 32.54 1111.12 -6.71 1054.59 49.82 1047.61 42.84 1111.12 -20.68 1164.35 32.54 1136.24 60.65 1110.83 35.24 1096.68 49.38 1134.36 87.05 1192.16 29.26 1047.05 -115.86 989.25 -58.06 1026.92 -20.38 1041.06 -34.52 1015.65 -59.94 1043.76 -88.05 1096.99 -34.82 1033.47 28.69 1026.48 21.71 1083.02 -34.82 1043.76 -74.08 1029.62 -59.94 1055.04 -34.52 1026.92 -6.41 975.27 -58.06 1047.05 -129.83 1206.13 29.26 1134.36 101.03"/><polygon points="894.87 36.24 735.78 -122.85 807.55 -194.61 859.21 -142.96 831.09 -114.85 805.68 -140.27 791.54 -126.13 830.79 -86.88 887.32 -143.41 894.31 -136.42 830.79 -72.9 777.57 -126.13 805.68 -154.24 831.09 -128.82 845.23 -142.96 807.55 -180.64 749.76 -122.85 894.87 22.27 952.67 -35.53 914.99 -73.2 900.85 -59.07 926.27 -33.65 898.16 -5.54 844.93 -58.76 908.45 -122.28 915.43 -115.29 858.9 -58.76 898.16 -19.51 912.3 -33.65 886.88 -59.07 914.99 -87.18 966.64 -35.53 894.87 36.24"/><polygon points="830.08 101.03 778.43 49.38 806.54 21.26 831.96 46.68 846.1 32.54 806.84 -6.71 750.31 49.82 743.33 42.84 806.84 -20.68 860.07 32.54 831.96 60.65 806.54 35.24 792.4 49.38 830.08 87.05 887.88 29.26 742.77 -115.86 684.97 -58.06 722.64 -20.38 736.78 -34.52 711.37 -59.94 739.48 -88.05 792.71 -34.82 729.19 28.69 722.2 21.71 778.73 -34.82 739.48 -74.08 725.34 -59.94 750.76 -34.52 722.64 -6.41 670.99 -58.06 742.77 -129.83 901.85 29.26 830.08 101.03"/></g><g class="cls-16"><polygon points="1047.01 492.65 887.93 333.56 959.69 261.79 1011.35 313.44 983.23 341.55 957.82 316.14 943.68 330.27 982.93 369.53 1039.46 313 1046.45 319.98 982.93 383.5 929.71 330.27 957.82 302.16 983.23 327.58 997.37 313.44 959.69 275.76 901.9 333.56 1047.01 478.68 1104.81 420.88 1067.13 383.2 1052.99 397.34 1078.41 422.75 1050.3 450.87 997.07 397.64 1060.59 334.12 1067.57 341.11 1011.04 397.64 1050.3 436.89 1064.44 422.75 1039.02 397.34 1067.13 369.23 1118.78 420.88 1047.01 492.65"/><polygon points="982.22 557.43 930.57 505.78 958.68 477.67 984.1 503.08 998.24 488.95 958.98 449.69 902.45 506.23 895.47 499.24 958.98 435.72 1012.21 488.95 984.1 517.06 958.68 491.64 944.54 505.78 982.22 543.46 1040.02 485.66 894.91 340.55 837.11 398.35 874.78 436.02 888.92 421.88 863.51 396.47 891.62 368.35 944.85 421.58 881.33 485.1 874.34 478.11 930.87 421.58 891.62 382.33 877.48 396.47 902.9 421.88 874.78 449.99 823.13 398.35 894.91 326.57 1053.99 485.66 982.22 557.43"/><polygon points="1134.36 405.3 1082.71 353.65 1110.83 325.53 1136.24 350.95 1150.38 336.81 1111.12 297.56 1054.59 354.09 1047.61 347.1 1111.12 283.59 1164.35 336.81 1136.24 364.92 1110.83 339.51 1096.68 353.65 1134.36 391.32 1192.16 333.53 1047.05 188.41 989.25 246.21 1026.92 283.89 1041.06 269.75 1015.65 244.33 1043.76 216.22 1096.99 269.45 1033.47 332.96 1026.48 325.98 1083.02 269.45 1043.76 230.19 1029.62 244.33 1055.04 269.75 1026.92 297.86 975.27 246.21 1047.05 174.44 1206.13 333.53 1134.36 405.3"/><polygon points="1047.01 188.38 887.93 29.29 959.69 -42.48 1011.35 9.17 983.23 37.28 957.82 11.87 943.68 26 982.93 65.26 1039.46 8.73 1046.45 15.71 982.93 79.23 929.71 26 957.82 -2.11 983.23 23.31 997.37 9.17 959.69 -28.51 901.9 29.29 1047.01 174.41 1104.81 116.61 1067.13 78.93 1052.99 93.07 1078.41 118.48 1050.3 146.6 997.07 93.37 1060.59 29.85 1067.57 36.84 1011.04 93.37 1050.3 132.62 1064.44 118.48 1039.02 93.07 1067.13 64.96 1118.78 116.61 1047.01 188.38"/><polygon points="982.22 253.16 930.57 201.51 958.68 173.4 984.1 198.82 998.24 184.68 958.98 145.42 902.45 201.96 895.47 194.97 958.98 131.45 1012.21 184.68 984.1 212.79 958.68 187.37 944.54 201.51 982.22 239.19 1040.02 181.39 894.91 36.28 837.11 94.08 874.78 131.75 888.92 117.62 863.51 92.2 891.62 64.09 944.85 117.31 881.33 180.83 874.34 173.84 930.87 117.31 891.62 78.06 877.48 92.2 902.9 117.62 874.78 145.72 823.13 94.08 894.91 22.3 1053.99 181.39 982.22 253.16"/><polygon points="894.87 340.51 735.78 181.42 807.55 109.66 859.21 161.31 831.09 189.42 805.68 164 791.54 178.14 830.79 217.39 887.32 160.86 894.31 167.85 830.79 231.36 777.57 178.14 805.68 150.03 831.09 175.45 845.23 161.31 807.55 123.63 749.76 181.42 894.87 326.54 952.67 268.74 914.99 231.07 900.85 245.2 926.27 270.62 898.16 298.73 844.93 245.51 908.45 181.99 915.43 188.97 858.9 245.51 898.16 284.76 912.3 270.62 886.88 245.2 914.99 217.09 966.64 268.74 894.87 340.51"/><polygon points="830.08 405.3 778.43 353.65 806.54 325.53 831.96 350.95 846.1 336.81 806.84 297.56 750.31 354.09 743.33 347.1 806.84 283.59 860.07 336.81 831.96 364.92 806.54 339.51 792.4 353.65 830.08 391.32 887.88 333.53 742.77 188.41 684.97 246.21 722.64 283.89 736.78 269.75 711.37 244.33 739.48 216.22 792.71 269.45 729.19 332.96 722.2 325.98 778.73 269.45 739.48 230.19 725.34 244.33 750.76 269.75 722.64 297.86 670.99 246.21 742.77 174.44 901.85 333.53 830.08 405.3"/><polygon points="1134.36 101.03 1082.71 49.38 1110.83 21.26 1136.24 46.68 1150.38 32.54 1111.12 -6.71 1054.59 49.82 1047.61 42.84 1111.12 -20.68 1164.35 32.54 1136.24 60.65 1110.83 35.24 1096.68 49.38 1134.36 87.05 1192.16 29.26 1047.05 -115.86 989.25 -58.06 1026.92 -20.38 1041.06 -34.52 1015.65 -59.94 1043.76 -88.05 1096.99 -34.82 1033.47 28.69 1026.48 21.71 1083.02 -34.82 1043.76 -74.08 1029.62 -59.94 1055.04 -34.52 1026.92 -6.41 975.27 -58.06 1047.05 -129.83 1206.13 29.26 1134.36 101.03"/><polygon points="830.08 101.03 778.43 49.38 806.54 21.26 831.96 46.68 846.1 32.54 806.84 -6.71 750.31 49.82 743.33 42.84 806.84 -20.68 860.07 32.54 831.96 60.65 806.54 35.24 792.4 49.38 830.08 87.05 887.88 29.26 742.77 -115.86 684.97 -58.06 722.64 -20.38 736.78 -34.52 711.37 -59.94 739.48 -88.05 792.71 -34.82 729.19 28.69 722.2 21.71 778.73 -34.82 739.48 -74.08 725.34 -59.94 750.76 -34.52 722.64 -6.41 670.99 -58.06 742.77 -129.83 901.85 29.26 830.08 101.03"/></g><g class="cls-12"><polygon points="1047.01 796.92 887.93 637.83 959.69 566.06 1011.35 617.71 983.23 645.82 957.82 620.41 943.68 634.54 982.93 673.8 1039.46 617.27 1046.45 624.25 982.93 687.77 929.71 634.54 957.82 606.43 983.23 631.85 997.37 617.71 959.69 580.03 901.9 637.83 1047.01 782.95 1104.81 725.15 1067.13 687.47 1052.99 701.61 1078.41 727.02 1050.3 755.14 997.07 701.91 1060.59 638.39 1067.57 645.38 1011.04 701.91 1050.3 741.16 1064.44 727.02 1039.02 701.61 1067.13 673.5 1118.78 725.15 1047.01 796.92"/><polygon points="982.22 861.7 930.57 810.05 958.68 781.94 984.1 807.35 998.24 793.22 958.98 753.96 902.45 810.5 895.47 803.51 958.98 739.99 1012.21 793.22 984.1 821.33 958.68 795.91 944.54 810.05 982.22 847.73 1040.02 789.93 894.91 644.81 837.11 702.61 874.78 740.29 888.92 726.15 863.51 700.74 891.62 672.62 944.85 725.85 881.33 789.37 874.34 782.38 930.87 725.85 891.62 686.6 877.48 700.74 902.9 726.15 874.78 754.26 823.13 702.61 894.91 630.84 1053.99 789.93 982.22 861.7"/><polygon points="1134.36 709.57 1082.71 657.92 1110.83 629.8 1136.24 655.22 1150.38 641.08 1111.12 601.83 1054.59 658.36 1047.61 651.37 1111.12 587.86 1164.35 641.08 1136.24 669.19 1110.83 643.78 1096.68 657.92 1134.36 695.59 1192.16 637.8 1047.05 492.68 989.25 550.48 1026.92 588.16 1041.06 574.02 1015.65 548.6 1043.76 520.49 1096.99 573.72 1033.47 637.23 1026.48 630.25 1083.02 573.72 1043.76 534.46 1029.62 548.6 1055.04 574.02 1026.92 602.13 975.27 550.48 1047.05 478.71 1206.13 637.8 1134.36 709.57"/><polygon points="1047.01 492.65 887.93 333.56 959.69 261.79 1011.35 313.44 983.23 341.55 957.82 316.14 943.68 330.27 982.93 369.53 1039.46 313 1046.45 319.98 982.93 383.5 929.71 330.27 957.82 302.16 983.23 327.58 997.37 313.44 959.69 275.76 901.9 333.56 1047.01 478.68 1104.81 420.88 1067.13 383.2 1052.99 397.34 1078.41 422.75 1050.3 450.87 997.07 397.64 1060.59 334.12 1067.57 341.11 1011.04 397.64 1050.3 436.89 1064.44 422.75 1039.02 397.34 1067.13 369.23 1118.78 420.88 1047.01 492.65"/><polygon points="982.22 557.43 930.57 505.78 958.68 477.67 984.1 503.08 998.24 488.95 958.98 449.69 902.45 506.23 895.47 499.24 958.98 435.72 1012.21 488.95 984.1 517.06 958.68 491.64 944.54 505.78 982.22 543.46 1040.02 485.66 894.91 340.55 837.11 398.35 874.78 436.02 888.92 421.88 863.51 396.47 891.62 368.35 944.85 421.58 881.33 485.1 874.34 478.11 930.87 421.58 891.62 382.33 877.48 396.47 902.9 421.88 874.78 449.99 823.13 398.35 894.91 326.57 1053.99 485.66 982.22 557.43"/><polygon points="894.87 644.78 735.78 485.69 807.55 413.93 859.21 465.57 831.09 493.69 805.68 468.27 791.54 482.41 830.79 521.66 887.32 465.13 894.31 472.12 830.79 535.63 777.57 482.41 805.68 454.3 831.09 479.72 845.23 465.57 807.55 427.9 749.76 485.69 894.87 630.81 952.67 573.01 914.99 535.34 900.85 549.47 926.27 574.89 898.16 603 844.93 549.78 908.45 486.26 915.43 493.24 858.9 549.78 898.16 589.03 912.3 574.89 886.88 549.47 914.99 521.36 966.64 573.01 894.87 644.78"/><polygon points="830.08 709.57 778.43 657.92 806.54 629.8 831.96 655.22 846.1 641.08 806.84 601.83 750.31 658.36 743.33 651.37 806.84 587.86 860.07 641.08 831.96 669.19 806.54 643.78 792.4 657.92 830.08 695.59 887.88 637.8 742.77 492.68 684.97 550.48 722.64 588.16 736.78 574.02 711.37 548.6 739.48 520.49 792.71 573.72 729.19 637.23 722.2 630.25 778.73 573.72 739.48 534.46 725.34 548.6 750.76 574.02 722.64 602.13 670.99 550.48 742.77 478.71 901.85 637.8 830.08 709.57"/><polygon points="1134.36 405.3 1082.71 353.65 1110.83 325.53 1136.24 350.95 1150.38 336.81 1111.12 297.56 1054.59 354.09 1047.61 347.1 1111.12 283.59 1164.35 336.81 1136.24 364.92 1110.83 339.51 1096.68 353.65 1134.36 391.32 1192.16 333.53 1047.05 188.41 989.25 246.21 1026.92 283.89 1041.06 269.75 1015.65 244.33 1043.76 216.22 1096.99 269.45 1033.47 332.96 1026.48 325.98 1083.02 269.45 1043.76 230.19 1029.62 244.33 1055.04 269.75 1026.92 297.86 975.27 246.21 1047.05 174.44 1206.13 333.53 1134.36 405.3"/><polygon points="830.08 405.3 778.43 353.65 806.54 325.53 831.96 350.95 846.1 336.81 806.84 297.56 750.31 354.09 743.33 347.1 806.84 283.59 860.07 336.81 831.96 364.92 806.54 339.51 792.4 353.65 830.08 391.32 887.88 333.53 742.77 188.41 684.97 246.21 722.64 283.89 736.78 269.75 711.37 244.33 739.48 216.22 792.71 269.45 729.19 332.96 722.2 325.98 778.73 269.45 739.48 230.19 725.34 244.33 750.76 269.75 722.64 297.86 670.99 246.21 742.77 174.44 901.85 333.53 830.08 405.3"/></g><g class="cls-4"><polygon points="1047.01 1101.19 887.93 942.1 959.69 870.33 1011.35 921.98 983.23 950.09 957.82 924.68 943.68 938.81 982.93 978.07 1039.46 921.54 1046.45 928.52 982.93 992.04 929.71 938.81 957.82 910.7 983.23 936.12 997.37 921.98 959.69 884.3 901.9 942.1 1047.01 1087.22 1104.81 1029.42 1067.13 991.74 1052.99 1005.88 1078.41 1031.29 1050.3 1059.41 997.07 1006.18 1060.59 942.66 1067.57 949.65 1011.04 1006.18 1050.3 1045.43 1064.44 1031.29 1039.02 1005.88 1067.13 977.77 1118.78 1029.42 1047.01 1101.19"/><polygon points="982.22 1165.97 930.57 1114.32 958.68 1086.21 984.1 1111.62 998.24 1097.49 958.98 1058.23 902.45 1114.76 895.47 1107.78 958.98 1044.26 1012.21 1097.49 984.1 1125.6 958.68 1100.18 944.54 1114.32 982.22 1152 1040.02 1094.2 894.91 949.08 837.11 1006.88 874.78 1044.56 888.92 1030.42 863.51 1005.01 891.62 976.89 944.85 1030.12 881.33 1093.64 874.34 1086.65 930.87 1030.12 891.62 990.87 877.48 1005.01 902.9 1030.42 874.78 1058.53 823.13 1006.88 894.91 935.11 1053.99 1094.2 982.22 1165.97"/><polygon points="1134.36 1013.83 1082.71 962.19 1110.83 934.07 1136.24 959.49 1150.38 945.35 1111.12 906.1 1054.59 962.63 1047.61 955.64 1111.12 892.13 1164.35 945.35 1136.24 973.46 1110.83 948.05 1096.68 962.19 1134.36 999.86 1192.16 942.07 1047.05 796.95 989.25 854.75 1026.92 892.43 1041.06 878.29 1015.65 852.87 1043.76 824.76 1096.99 877.99 1033.47 941.5 1026.48 934.52 1083.02 877.99 1043.76 838.73 1029.62 852.87 1055.04 878.29 1026.92 906.4 975.27 854.75 1047.05 782.98 1206.13 942.07 1134.36 1013.83"/><polygon points="1047.01 796.92 887.93 637.83 959.69 566.06 1011.35 617.71 983.23 645.82 957.82 620.41 943.68 634.54 982.93 673.8 1039.46 617.27 1046.45 624.25 982.93 687.77 929.71 634.54 957.82 606.43 983.23 631.85 997.37 617.71 959.69 580.03 901.9 637.83 1047.01 782.95 1104.81 725.15 1067.13 687.47 1052.99 701.61 1078.41 727.02 1050.3 755.14 997.07 701.91 1060.59 638.39 1067.57 645.38 1011.04 701.91 1050.3 741.16 1064.44 727.02 1039.02 701.61 1067.13 673.5 1118.78 725.15 1047.01 796.92"/><polygon points="982.22 861.7 930.57 810.05 958.68 781.94 984.1 807.35 998.24 793.22 958.98 753.96 902.45 810.5 895.47 803.51 958.98 739.99 1012.21 793.22 984.1 821.33 958.68 795.91 944.54 810.05 982.22 847.73 1040.02 789.93 894.91 644.81 837.11 702.61 874.78 740.29 888.92 726.15 863.51 700.74 891.62 672.62 944.85 725.85 881.33 789.37 874.34 782.38 930.87 725.85 891.62 686.6 877.48 700.74 902.9 726.15 874.78 754.26 823.13 702.61 894.91 630.84 1053.99 789.93 982.22 861.7"/><polygon points="894.87 949.05 735.78 789.96 807.55 718.2 859.21 769.84 831.09 797.96 805.68 772.54 791.54 786.68 830.79 825.93 887.32 769.4 894.31 776.39 830.79 839.9 777.57 786.68 805.68 758.57 831.09 783.99 845.23 769.84 807.55 732.17 749.76 789.96 894.87 935.08 952.67 877.28 914.99 839.6 900.85 853.74 926.27 879.16 898.16 907.27 844.93 854.05 908.45 790.53 915.43 797.51 858.9 854.05 898.16 893.3 912.3 879.16 886.88 853.74 914.99 825.63 966.64 877.28 894.87 949.05"/><polygon points="830.08 1013.83 778.43 962.19 806.54 934.07 831.96 959.49 846.1 945.35 806.84 906.1 750.31 962.63 743.33 955.64 806.84 892.13 860.07 945.35 831.96 973.46 806.54 948.05 792.4 962.19 830.08 999.86 887.88 942.07 742.77 796.95 684.97 854.75 722.64 892.43 736.78 878.29 711.37 852.87 739.48 824.76 792.71 877.99 729.19 941.5 722.2 934.52 778.73 877.99 739.48 838.73 725.34 852.87 750.76 878.29 722.64 906.4 670.99 854.75 742.77 782.98 901.85 942.07 830.08 1013.83"/><polygon points="1134.36 709.57 1082.71 657.92 1110.83 629.8 1136.24 655.22 1150.38 641.08 1111.12 601.83 1054.59 658.36 1047.61 651.37 1111.12 587.86 1164.35 641.08 1136.24 669.19 1110.83 643.78 1096.68 657.92 1134.36 695.59 1192.16 637.8 1047.05 492.68 989.25 550.48 1026.92 588.16 1041.06 574.02 1015.65 548.6 1043.76 520.49 1096.99 573.72 1033.47 637.23 1026.48 630.25 1083.02 573.72 1043.76 534.46 1029.62 548.6 1055.04 574.02 1026.92 602.13 975.27 550.48 1047.05 478.71 1206.13 637.8 1134.36 709.57"/><polygon points="830.08 709.57 778.43 657.92 806.54 629.8 831.96 655.22 846.1 641.08 806.84 601.83 750.31 658.36 743.33 651.37 806.84 587.86 860.07 641.08 831.96 669.19 806.54 643.78 792.4 657.92 830.08 695.59 887.88 637.8 742.77 492.68 684.97 550.48 722.64 588.16 736.78 574.02 711.37 548.6 739.48 520.49 792.71 573.72 729.19 637.23 722.2 630.25 778.73 573.72 739.48 534.46 725.34 548.6 750.76 574.02 722.64 602.13 670.99 550.48 742.77 478.71 901.85 637.8 830.08 709.57"/></g><g class="cls-10"><polygon points="1047.01 188.38 887.93 29.29 959.69 -42.48 1011.35 9.17 983.23 37.28 957.82 11.87 943.68 26 982.93 65.26 1039.46 8.73 1046.45 15.71 982.93 79.23 929.71 26 957.82 -2.11 983.23 23.31 997.37 9.17 959.69 -28.51 901.9 29.29 1047.01 174.41 1104.81 116.61 1067.13 78.93 1052.99 93.07 1078.41 118.48 1050.3 146.6 997.07 93.37 1060.59 29.85 1067.57 36.84 1011.04 93.37 1050.3 132.62 1064.44 118.48 1039.02 93.07 1067.13 64.96 1118.78 116.61 1047.01 188.38"/><polygon points="982.22 253.16 930.57 201.51 958.68 173.4 984.1 198.82 998.24 184.68 958.98 145.42 902.45 201.96 895.47 194.97 958.98 131.45 1012.21 184.68 984.1 212.79 958.68 187.37 944.54 201.51 982.22 239.19 1040.02 181.39 894.91 36.28 837.11 94.08 874.78 131.75 888.92 117.62 863.51 92.2 891.62 64.09 944.85 117.31 881.33 180.83 874.34 173.84 930.87 117.31 891.62 78.06 877.48 92.2 902.9 117.62 874.78 145.72 823.13 94.08 894.91 22.3 1053.99 181.39 982.22 253.16"/><polygon points="742.73 188.38 583.64 29.29 655.41 -42.48 707.07 9.17 678.95 37.28 653.53 11.87 639.4 26 678.65 65.26 735.18 8.73 742.17 15.71 678.65 79.23 625.43 26 653.53 -2.11 678.95 23.31 693.09 9.17 655.41 -28.51 597.62 29.29 742.73 174.41 800.53 116.61 762.85 78.93 748.71 93.07 774.13 118.48 746.02 146.6 692.79 93.37 756.31 29.85 763.29 36.84 706.76 93.37 746.02 132.62 760.16 118.48 734.74 93.07 762.85 64.96 814.5 116.61 742.73 188.38"/><polygon points="677.94 253.16 626.29 201.51 654.4 173.4 679.82 198.82 693.96 184.68 654.7 145.42 598.17 201.96 591.19 194.97 654.7 131.45 707.93 184.68 679.82 212.79 654.4 187.37 640.26 201.51 677.94 239.19 735.74 181.39 590.63 36.28 532.83 94.08 570.5 131.75 584.64 117.62 559.23 92.2 587.34 64.09 640.57 117.31 577.05 180.83 570.06 173.84 626.59 117.31 587.34 78.06 573.2 92.2 598.62 117.62 570.5 145.72 518.85 94.08 590.63 22.3 749.71 181.39 677.94 253.16"/><polygon points="894.87 36.24 735.78 -122.85 807.55 -194.61 859.21 -142.96 831.09 -114.85 805.68 -140.27 791.54 -126.13 830.79 -86.88 887.32 -143.41 894.31 -136.42 830.79 -72.9 777.57 -126.13 805.68 -154.24 831.09 -128.82 845.23 -142.96 807.55 -180.64 749.76 -122.85 894.87 22.27 952.67 -35.53 914.99 -73.2 900.85 -59.07 926.27 -33.65 898.16 -5.54 844.93 -58.76 908.45 -122.28 915.43 -115.29 858.9 -58.76 898.16 -19.51 912.3 -33.65 886.88 -59.07 914.99 -87.18 966.64 -35.53 894.87 36.24"/><polygon points="830.08 101.03 778.43 49.38 806.54 21.26 831.96 46.68 846.1 32.54 806.84 -6.71 750.31 49.82 743.33 42.84 806.84 -20.68 860.07 32.54 831.96 60.65 806.54 35.24 792.4 49.38 830.08 87.05 887.88 29.26 742.77 -115.86 684.97 -58.06 722.64 -20.38 736.78 -34.52 711.37 -59.94 739.48 -88.05 792.71 -34.82 729.19 28.69 722.2 21.71 778.73 -34.82 739.48 -74.08 725.34 -59.94 750.76 -34.52 722.64 -6.41 670.99 -58.06 742.77 -129.83 901.85 29.26 830.08 101.03"/><polygon points="590.59 36.24 431.5 -122.85 503.27 -194.61 554.92 -142.96 526.81 -114.85 501.39 -140.27 487.26 -126.13 526.51 -86.88 583.04 -143.41 590.03 -136.42 526.51 -72.9 473.29 -126.13 501.39 -154.24 526.81 -128.82 540.95 -142.96 503.27 -180.64 445.48 -122.85 590.59 22.27 648.39 -35.53 610.71 -73.2 596.57 -59.07 621.99 -33.65 593.88 -5.54 540.65 -58.76 604.17 -122.28 611.15 -115.29 554.62 -58.76 593.88 -19.51 608.02 -33.65 582.6 -59.07 610.71 -87.18 662.36 -35.53 590.59 36.24"/><polygon points="525.8 101.03 474.15 49.38 502.26 21.26 527.68 46.68 541.82 32.54 502.56 -6.71 446.03 49.82 439.04 42.84 502.56 -20.68 555.79 32.54 527.68 60.65 502.26 35.24 488.12 49.38 525.8 87.05 583.6 29.26 438.49 -115.86 380.69 -58.06 418.36 -20.38 432.5 -34.52 407.09 -59.94 435.19 -88.05 488.43 -34.82 424.91 28.69 417.92 21.71 474.45 -34.82 435.19 -74.08 421.06 -59.94 446.47 -34.52 418.36 -6.41 366.71 -58.06 438.49 -129.83 597.57 29.26 525.8 101.03"/></g><g class="cls-1"><polygon points="1047.01 492.65 887.93 333.56 959.69 261.79 1011.35 313.44 983.23 341.55 957.82 316.14 943.68 330.27 982.93 369.53 1039.46 313 1046.45 319.98 982.93 383.5 929.71 330.27 957.82 302.16 983.23 327.58 997.37 313.44 959.69 275.76 901.9 333.56 1047.01 478.68 1104.81 420.88 1067.13 383.2 1052.99 397.34 1078.41 422.75 1050.3 450.87 997.07 397.64 1060.59 334.12 1067.57 341.11 1011.04 397.64 1050.3 436.89 1064.44 422.75 1039.02 397.34 1067.13 369.23 1118.78 420.88 1047.01 492.65"/><polygon points="982.22 557.43 930.57 505.78 958.68 477.67 984.1 503.08 998.24 488.95 958.98 449.69 902.45 506.23 895.47 499.24 958.98 435.72 1012.21 488.95 984.1 517.06 958.68 491.64 944.54 505.78 982.22 543.46 1040.02 485.66 894.91 340.55 837.11 398.35 874.78 436.02 888.92 421.88 863.51 396.47 891.62 368.35 944.85 421.58 881.33 485.1 874.34 478.11 930.87 421.58 891.62 382.33 877.48 396.47 902.9 421.88 874.78 449.99 823.13 398.35 894.91 326.57 1053.99 485.66 982.22 557.43"/><polygon points="742.73 492.65 583.64 333.56 655.41 261.79 707.07 313.44 678.95 341.55 653.53 316.14 639.4 330.27 678.65 369.53 735.18 313 742.17 319.98 678.65 383.5 625.43 330.27 653.53 302.16 678.95 327.58 693.09 313.44 655.41 275.76 597.62 333.56 742.73 478.68 800.53 420.88 762.85 383.2 748.71 397.34 774.13 422.75 746.02 450.87 692.79 397.64 756.31 334.12 763.29 341.11 706.76 397.64 746.02 436.89 760.16 422.75 734.74 397.34 762.85 369.23 814.5 420.88 742.73 492.65"/><polygon points="677.94 557.43 626.29 505.78 654.4 477.67 679.82 503.08 693.96 488.95 654.7 449.69 598.17 506.23 591.19 499.24 654.7 435.72 707.93 488.95 679.82 517.06 654.4 491.64 640.26 505.78 677.94 543.46 735.74 485.66 590.63 340.55 532.83 398.35 570.5 436.02 584.64 421.88 559.23 396.47 587.34 368.35 640.57 421.58 577.05 485.1 570.06 478.11 626.59 421.58 587.34 382.33 573.2 396.47 598.62 421.88 570.5 449.99 518.85 398.35 590.63 326.57 749.71 485.66 677.94 557.43"/><polygon points="1047.01 188.38 887.93 29.29 959.69 -42.48 1011.35 9.17 983.23 37.28 957.82 11.87 943.68 26 982.93 65.26 1039.46 8.73 1046.45 15.71 982.93 79.23 929.71 26 957.82 -2.11 983.23 23.31 997.37 9.17 959.69 -28.51 901.9 29.29 1047.01 174.41 1104.81 116.61 1067.13 78.93 1052.99 93.07 1078.41 118.48 1050.3 146.6 997.07 93.37 1060.59 29.85 1067.57 36.84 1011.04 93.37 1050.3 132.62 1064.44 118.48 1039.02 93.07 1067.13 64.96 1118.78 116.61 1047.01 188.38"/><polygon points="982.22 253.16 930.57 201.51 958.68 173.4 984.1 198.82 998.24 184.68 958.98 145.42 902.45 201.96 895.47 194.97 958.98 131.45 1012.21 184.68 984.1 212.79 958.68 187.37 944.54 201.51 982.22 239.19 1040.02 181.39 894.91 36.28 837.11 94.08 874.78 131.75 888.92 117.62 863.51 92.2 891.62 64.09 944.85 117.31 881.33 180.83 874.34 173.84 930.87 117.31 891.62 78.06 877.48 92.2 902.9 117.62 874.78 145.72 823.13 94.08 894.91 22.3 1053.99 181.39 982.22 253.16"/><polygon points="894.87 340.51 735.78 181.42 807.55 109.66 859.21 161.31 831.09 189.42 805.68 164 791.54 178.14 830.79 217.39 887.32 160.86 894.31 167.85 830.79 231.36 777.57 178.14 805.68 150.03 831.09 175.45 845.23 161.31 807.55 123.63 749.76 181.42 894.87 326.54 952.67 268.74 914.99 231.07 900.85 245.2 926.27 270.62 898.16 298.73 844.93 245.51 908.45 181.99 915.43 188.97 858.9 245.51 898.16 284.76 912.3 270.62 886.88 245.2 914.99 217.09 966.64 268.74 894.87 340.51"/><polygon points="830.08 405.3 778.43 353.65 806.54 325.53 831.96 350.95 846.1 336.81 806.84 297.56 750.31 354.09 743.33 347.1 806.84 283.59 860.07 336.81 831.96 364.92 806.54 339.51 792.4 353.65 830.08 391.32 887.88 333.53 742.77 188.41 684.97 246.21 722.64 283.89 736.78 269.75 711.37 244.33 739.48 216.22 792.71 269.45 729.19 332.96 722.2 325.98 778.73 269.45 739.48 230.19 725.34 244.33 750.76 269.75 722.64 297.86 670.99 246.21 742.77 174.44 901.85 333.53 830.08 405.3"/><polygon points="742.73 188.38 583.64 29.29 655.41 -42.48 707.07 9.17 678.95 37.28 653.53 11.87 639.4 26 678.65 65.26 735.18 8.73 742.17 15.71 678.65 79.23 625.43 26 653.53 -2.11 678.95 23.31 693.09 9.17 655.41 -28.51 597.62 29.29 742.73 174.41 800.53 116.61 762.85 78.93 748.71 93.07 774.13 118.48 746.02 146.6 692.79 93.37 756.31 29.85 763.29 36.84 706.76 93.37 746.02 132.62 760.16 118.48 734.74 93.07 762.85 64.96 814.5 116.61 742.73 188.38"/><polygon points="677.94 253.16 626.29 201.51 654.4 173.4 679.82 198.82 693.96 184.68 654.7 145.42 598.17 201.96 591.19 194.97 654.7 131.45 707.93 184.68 679.82 212.79 654.4 187.37 640.26 201.51 677.94 239.19 735.74 181.39 590.63 36.28 532.83 94.08 570.5 131.75 584.64 117.62 559.23 92.2 587.34 64.09 640.57 117.31 577.05 180.83 570.06 173.84 626.59 117.31 587.34 78.06 573.2 92.2 598.62 117.62 570.5 145.72 518.85 94.08 590.63 22.3 749.71 181.39 677.94 253.16"/><polygon points="590.59 340.51 431.5 181.42 503.27 109.66 554.92 161.31 526.81 189.42 501.39 164 487.26 178.14 526.51 217.39 583.04 160.86 590.03 167.85 526.51 231.36 473.29 178.14 501.39 150.03 526.81 175.45 540.95 161.31 503.27 123.63 445.48 181.42 590.59 326.54 648.39 268.74 610.71 231.07 596.57 245.2 621.99 270.62 593.88 298.73 540.65 245.51 604.17 181.99 611.15 188.97 554.62 245.51 593.88 284.76 608.02 270.62 582.6 245.2 610.71 217.09 662.36 268.74 590.59 340.51"/><polygon points="525.8 405.3 474.15 353.65 502.26 325.53 527.68 350.95 541.82 336.81 502.56 297.56 446.03 354.09 439.04 347.1 502.56 283.59 555.79 336.81 527.68 364.92 502.26 339.51 488.12 353.65 525.8 391.32 583.6 333.53 438.49 188.41 380.69 246.21 418.36 283.89 432.5 269.75 407.09 244.33 435.19 216.22 488.43 269.45 424.91 332.96 417.92 325.98 474.45 269.45 435.19 230.19 421.06 244.33 446.47 269.75 418.36 297.86 366.71 246.21 438.49 174.44 597.57 333.53 525.8 405.3"/><polygon points="830.08 101.03 778.43 49.38 806.54 21.26 831.96 46.68 846.1 32.54 806.84 -6.71 750.31 49.82 743.33 42.84 806.84 -20.68 860.07 32.54 831.96 60.65 806.54 35.24 792.4 49.38 830.08 87.05 887.88 29.26 742.77 -115.86 684.97 -58.06 722.64 -20.38 736.78 -34.52 711.37 -59.94 739.48 -88.05 792.71 -34.82 729.19 28.69 722.2 21.71 778.73 -34.82 739.48 -74.08 725.34 -59.94 750.76 -34.52 722.64 -6.41 670.99 -58.06 742.77 -129.83 901.85 29.26 830.08 101.03"/><polygon points="525.8 101.03 474.15 49.38 502.26 21.26 527.68 46.68 541.82 32.54 502.56 -6.71 446.03 49.82 439.04 42.84 502.56 -20.68 555.79 32.54 527.68 60.65 502.26 35.24 488.12 49.38 525.8 87.05 583.6 29.26 438.49 -115.86 380.69 -58.06 418.36 -20.38 432.5 -34.52 407.09 -59.94 435.19 -88.05 488.43 -34.82 424.91 28.69 417.92 21.71 474.45 -34.82 435.19 -74.08 421.06 -59.94 446.47 -34.52 418.36 -6.41 366.71 -58.06 438.49 -129.83 597.57 29.26 525.8 101.03"/></g><g class="cls-2"><polygon points="1047.01 796.92 887.93 637.83 959.69 566.06 1011.35 617.71 983.23 645.82 957.82 620.41 943.68 634.54 982.93 673.8 1039.46 617.27 1046.45 624.25 982.93 687.77 929.71 634.54 957.82 606.43 983.23 631.85 997.37 617.71 959.69 580.03 901.9 637.83 1047.01 782.95 1104.81 725.15 1067.13 687.47 1052.99 701.61 1078.41 727.02 1050.3 755.14 997.07 701.91 1060.59 638.39 1067.57 645.38 1011.04 701.91 1050.3 741.16 1064.44 727.02 1039.02 701.61 1067.13 673.5 1118.78 725.15 1047.01 796.92"/><polygon points="982.22 861.7 930.57 810.05 958.68 781.94 984.1 807.35 998.24 793.22 958.98 753.96 902.45 810.5 895.47 803.51 958.98 739.99 1012.21 793.22 984.1 821.33 958.68 795.91 944.54 810.05 982.22 847.73 1040.02 789.93 894.91 644.81 837.11 702.61 874.78 740.29 888.92 726.15 863.51 700.74 891.62 672.62 944.85 725.85 881.33 789.37 874.34 782.38 930.87 725.85 891.62 686.6 877.48 700.74 902.9 726.15 874.78 754.26 823.13 702.61 894.91 630.84 1053.99 789.93 982.22 861.7"/><polygon points="742.73 796.92 583.64 637.83 655.41 566.06 707.07 617.71 678.95 645.82 653.53 620.41 639.4 634.54 678.65 673.8 735.18 617.27 742.17 624.25 678.65 687.77 625.43 634.54 653.53 606.43 678.95 631.85 693.09 617.71 655.41 580.03 597.62 637.83 742.73 782.95 800.53 725.15 762.85 687.47 748.71 701.61 774.13 727.02 746.02 755.14 692.79 701.91 756.31 638.39 763.29 645.38 706.76 701.91 746.02 741.16 760.16 727.02 734.74 701.61 762.85 673.5 814.5 725.15 742.73 796.92"/><polygon points="677.94 861.7 626.29 810.05 654.4 781.94 679.82 807.35 693.96 793.22 654.7 753.96 598.17 810.5 591.19 803.51 654.7 739.99 707.93 793.22 679.82 821.33 654.4 795.91 640.26 810.05 677.94 847.73 735.74 789.93 590.63 644.81 532.83 702.61 570.5 740.29 584.64 726.15 559.23 700.74 587.34 672.62 640.57 725.85 577.05 789.37 570.06 782.38 626.59 725.85 587.34 686.6 573.2 700.74 598.62 726.15 570.5 754.26 518.85 702.61 590.63 630.84 749.71 789.93 677.94 861.7"/><polygon points="1047.01 492.65 887.93 333.56 959.69 261.79 1011.35 313.44 983.23 341.55 957.82 316.14 943.68 330.27 982.93 369.53 1039.46 313 1046.45 319.98 982.93 383.5 929.71 330.27 957.82 302.16 983.23 327.58 997.37 313.44 959.69 275.76 901.9 333.56 1047.01 478.68 1104.81 420.88 1067.13 383.2 1052.99 397.34 1078.41 422.75 1050.3 450.87 997.07 397.64 1060.59 334.12 1067.57 341.11 1011.04 397.64 1050.3 436.89 1064.44 422.75 1039.02 397.34 1067.13 369.23 1118.78 420.88 1047.01 492.65"/><polygon points="982.22 557.43 930.57 505.78 958.68 477.67 984.1 503.08 998.24 488.95 958.98 449.69 902.45 506.23 895.47 499.24 958.98 435.72 1012.21 488.95 984.1 517.06 958.68 491.64 944.54 505.78 982.22 543.46 1040.02 485.66 894.91 340.55 837.11 398.35 874.78 436.02 888.92 421.88 863.51 396.47 891.62 368.35 944.85 421.58 881.33 485.1 874.34 478.11 930.87 421.58 891.62 382.33 877.48 396.47 902.9 421.88 874.78 449.99 823.13 398.35 894.91 326.57 1053.99 485.66 982.22 557.43"/><polygon points="894.87 644.78 735.78 485.69 807.55 413.93 859.21 465.57 831.09 493.69 805.68 468.27 791.54 482.41 830.79 521.66 887.32 465.13 894.31 472.12 830.79 535.63 777.57 482.41 805.68 454.3 831.09 479.72 845.23 465.57 807.55 427.9 749.76 485.69 894.87 630.81 952.67 573.01 914.99 535.34 900.85 549.47 926.27 574.89 898.16 603 844.93 549.78 908.45 486.26 915.43 493.24 858.9 549.78 898.16 589.03 912.3 574.89 886.88 549.47 914.99 521.36 966.64 573.01 894.87 644.78"/><polygon points="830.08 709.57 778.43 657.92 806.54 629.8 831.96 655.22 846.1 641.08 806.84 601.83 750.31 658.36 743.33 651.37 806.84 587.86 860.07 641.08 831.96 669.19 806.54 643.78 792.4 657.92 830.08 695.59 887.88 637.8 742.77 492.68 684.97 550.48 722.64 588.16 736.78 574.02 711.37 548.6 739.48 520.49 792.71 573.72 729.19 637.23 722.2 630.25 778.73 573.72 739.48 534.46 725.34 548.6 750.76 574.02 722.64 602.13 670.99 550.48 742.77 478.71 901.85 637.8 830.08 709.57"/><polygon points="742.73 492.65 583.64 333.56 655.41 261.79 707.07 313.44 678.95 341.55 653.53 316.14 639.4 330.27 678.65 369.53 735.18 313 742.17 319.98 678.65 383.5 625.43 330.27 653.53 302.16 678.95 327.58 693.09 313.44 655.41 275.76 597.62 333.56 742.73 478.68 800.53 420.88 762.85 383.2 748.71 397.34 774.13 422.75 746.02 450.87 692.79 397.64 756.31 334.12 763.29 341.11 706.76 397.64 746.02 436.89 760.16 422.75 734.74 397.34 762.85 369.23 814.5 420.88 742.73 492.65"/><polygon points="677.94 557.43 626.29 505.78 654.4 477.67 679.82 503.08 693.96 488.95 654.7 449.69 598.17 506.23 591.19 499.24 654.7 435.72 707.93 488.95 679.82 517.06 654.4 491.64 640.26 505.78 677.94 543.46 735.74 485.66 590.63 340.55 532.83 398.35 570.5 436.02 584.64 421.88 559.23 396.47 587.34 368.35 640.57 421.58 577.05 485.1 570.06 478.11 626.59 421.58 587.34 382.33 573.2 396.47 598.62 421.88 570.5 449.99 518.85 398.35 590.63 326.57 749.71 485.66 677.94 557.43"/><polygon points="590.59 644.78 431.5 485.69 503.27 413.93 554.92 465.57 526.81 493.69 501.39 468.27 487.26 482.41 526.51 521.66 583.04 465.13 590.03 472.12 526.51 535.63 473.29 482.41 501.39 454.3 526.81 479.72 540.95 465.57 503.27 427.9 445.48 485.69 590.59 630.81 648.39 573.01 610.71 535.34 596.57 549.47 621.99 574.89 593.88 603 540.65 549.78 604.17 486.26 611.15 493.24 554.62 549.78 593.88 589.03 608.02 574.89 582.6 549.47 610.71 521.36 662.36 573.01 590.59 644.78"/><polygon points="525.8 709.57 474.15 657.92 502.26 629.8 527.68 655.22 541.82 641.08 502.56 601.83 446.03 658.36 439.04 651.37 502.56 587.86 555.79 641.08 527.68 669.19 502.26 643.78 488.12 657.92 525.8 695.59 583.6 637.8 438.49 492.68 380.69 550.48 418.36 588.16 432.5 574.02 407.09 548.6 435.19 520.49 488.43 573.72 424.91 637.23 417.92 630.25 474.45 573.72 435.19 534.46 421.06 548.6 446.47 574.02 418.36 602.13 366.71 550.48 438.49 478.71 597.57 637.8 525.8 709.57"/><polygon points="830.08 405.3 778.43 353.65 806.54 325.53 831.96 350.95 846.1 336.81 806.84 297.56 750.31 354.09 743.33 347.1 806.84 283.59 860.07 336.81 831.96 364.92 806.54 339.51 792.4 353.65 830.08 391.32 887.88 333.53 742.77 188.41 684.97 246.21 722.64 283.89 736.78 269.75 711.37 244.33 739.48 216.22 792.71 269.45 729.19 332.96 722.2 325.98 778.73 269.45 739.48 230.19 725.34 244.33 750.76 269.75 722.64 297.86 670.99 246.21 742.77 174.44 901.85 333.53 830.08 405.3"/><polygon points="525.8 405.3 474.15 353.65 502.26 325.53 527.68 350.95 541.82 336.81 502.56 297.56 446.03 354.09 439.04 347.1 502.56 283.59 555.79 336.81 527.68 364.92 502.26 339.51 488.12 353.65 525.8 391.32 583.6 333.53 438.49 188.41 380.69 246.21 418.36 283.89 432.5 269.75 407.09 244.33 435.19 216.22 488.43 269.45 424.91 332.96 417.92 325.98 474.45 269.45 435.19 230.19 421.06 244.33 446.47 269.75 418.36 297.86 366.71 246.21 438.49 174.44 597.57 333.53 525.8 405.3"/></g><g class="cls-11"><polygon points="1047.01 1101.19 887.93 942.1 959.69 870.33 1011.35 921.98 983.23 950.09 957.82 924.68 943.68 938.81 982.93 978.07 1039.46 921.54 1046.45 928.52 982.93 992.04 929.71 938.81 957.82 910.7 983.23 936.12 997.37 921.98 959.69 884.3 901.9 942.1 1047.01 1087.22 1104.81 1029.42 1067.13 991.74 1052.99 1005.88 1078.41 1031.29 1050.3 1059.41 997.07 1006.18 1060.59 942.66 1067.57 949.65 1011.04 1006.18 1050.3 1045.43 1064.44 1031.29 1039.02 1005.88 1067.13 977.77 1118.78 1029.42 1047.01 1101.19"/><polygon points="982.22 1165.97 930.57 1114.32 958.68 1086.21 984.1 1111.62 998.24 1097.49 958.98 1058.23 902.45 1114.76 895.47 1107.78 958.98 1044.26 1012.21 1097.49 984.1 1125.6 958.68 1100.18 944.54 1114.32 982.22 1152 1040.02 1094.2 894.91 949.08 837.11 1006.88 874.78 1044.56 888.92 1030.42 863.51 1005.01 891.62 976.89 944.85 1030.12 881.33 1093.64 874.34 1086.65 930.87 1030.12 891.62 990.87 877.48 1005.01 902.9 1030.42 874.78 1058.53 823.13 1006.88 894.91 935.11 1053.99 1094.2 982.22 1165.97"/><polygon points="742.73 1101.19 583.64 942.1 655.41 870.33 707.07 921.98 678.95 950.09 653.53 924.68 639.4 938.81 678.65 978.07 735.18 921.54 742.17 928.52 678.65 992.04 625.43 938.81 653.53 910.7 678.95 936.12 693.09 921.98 655.41 884.3 597.62 942.1 742.73 1087.22 800.53 1029.42 762.85 991.74 748.71 1005.88 774.13 1031.29 746.02 1059.41 692.79 1006.18 756.31 942.66 763.29 949.65 706.76 1006.18 746.02 1045.43 760.16 1031.29 734.74 1005.88 762.85 977.77 814.5 1029.42 742.73 1101.19"/><polygon points="677.94 1165.97 626.29 1114.32 654.4 1086.21 679.82 1111.62 693.96 1097.49 654.7 1058.23 598.17 1114.76 591.19 1107.78 654.7 1044.26 707.93 1097.49 679.82 1125.6 654.4 1100.18 640.26 1114.32 677.94 1152 735.74 1094.2 590.63 949.08 532.83 1006.88 570.5 1044.56 584.64 1030.42 559.23 1005.01 587.34 976.89 640.57 1030.12 577.05 1093.64 570.06 1086.65 626.59 1030.12 587.34 990.87 573.2 1005.01 598.62 1030.42 570.5 1058.53 518.85 1006.88 590.63 935.11 749.71 1094.2 677.94 1165.97"/><polygon points="1047.01 796.92 887.93 637.83 959.69 566.06 1011.35 617.71 983.23 645.82 957.82 620.41 943.68 634.54 982.93 673.8 1039.46 617.27 1046.45 624.25 982.93 687.77 929.71 634.54 957.82 606.43 983.23 631.85 997.37 617.71 959.69 580.03 901.9 637.83 1047.01 782.95 1104.81 725.15 1067.13 687.47 1052.99 701.61 1078.41 727.02 1050.3 755.14 997.07 701.91 1060.59 638.39 1067.57 645.38 1011.04 701.91 1050.3 741.16 1064.44 727.02 1039.02 701.61 1067.13 673.5 1118.78 725.15 1047.01 796.92"/><polygon points="982.22 861.7 930.57 810.05 958.68 781.94 984.1 807.35 998.24 793.22 958.98 753.96 902.45 810.5 895.47 803.51 958.98 739.99 1012.21 793.22 984.1 821.33 958.68 795.91 944.54 810.05 982.22 847.73 1040.02 789.93 894.91 644.81 837.11 702.61 874.78 740.29 888.92 726.15 863.51 700.74 891.62 672.62 944.85 725.85 881.33 789.37 874.34 782.38 930.87 725.85 891.62 686.6 877.48 700.74 902.9 726.15 874.78 754.26 823.13 702.61 894.91 630.84 1053.99 789.93 982.22 861.7"/><polygon points="894.87 949.05 735.78 789.96 807.55 718.2 859.21 769.84 831.09 797.96 805.68 772.54 791.54 786.68 830.79 825.93 887.32 769.4 894.31 776.39 830.79 839.9 777.57 786.68 805.68 758.57 831.09 783.99 845.23 769.84 807.55 732.17 749.76 789.96 894.87 935.08 952.67 877.28 914.99 839.6 900.85 853.74 926.27 879.16 898.16 907.27 844.93 854.05 908.45 790.53 915.43 797.51 858.9 854.05 898.16 893.3 912.3 879.16 886.88 853.74 914.99 825.63 966.64 877.28 894.87 949.05"/><polygon points="830.08 1013.83 778.43 962.19 806.54 934.07 831.96 959.49 846.1 945.35 806.84 906.1 750.31 962.63 743.33 955.64 806.84 892.13 860.07 945.35 831.96 973.46 806.54 948.05 792.4 962.19 830.08 999.86 887.88 942.07 742.77 796.95 684.97 854.75 722.64 892.43 736.78 878.29 711.37 852.87 739.48 824.76 792.71 877.99 729.19 941.5 722.2 934.52 778.73 877.99 739.48 838.73 725.34 852.87 750.76 878.29 722.64 906.4 670.99 854.75 742.77 782.98 901.85 942.07 830.08 1013.83"/><polygon points="742.73 796.92 583.64 637.83 655.41 566.06 707.07 617.71 678.95 645.82 653.53 620.41 639.4 634.54 678.65 673.8 735.18 617.27 742.17 624.25 678.65 687.77 625.43 634.54 653.53 606.43 678.95 631.85 693.09 617.71 655.41 580.03 597.62 637.83 742.73 782.95 800.53 725.15 762.85 687.47 748.71 701.61 774.13 727.02 746.02 755.14 692.79 701.91 756.31 638.39 763.29 645.38 706.76 701.91 746.02 741.16 760.16 727.02 734.74 701.61 762.85 673.5 814.5 725.15 742.73 796.92"/><polygon points="677.94 861.7 626.29 810.05 654.4 781.94 679.82 807.35 693.96 793.22 654.7 753.96 598.17 810.5 591.19 803.51 654.7 739.99 707.93 793.22 679.82 821.33 654.4 795.91 640.26 810.05 677.94 847.73 735.74 789.93 590.63 644.81 532.83 702.61 570.5 740.29 584.64 726.15 559.23 700.74 587.34 672.62 640.57 725.85 577.05 789.37 570.06 782.38 626.59 725.85 587.34 686.6 573.2 700.74 598.62 726.15 570.5 754.26 518.85 702.61 590.63 630.84 749.71 789.93 677.94 861.7"/><polygon points="590.59 949.05 431.5 789.96 503.27 718.2 554.92 769.84 526.81 797.96 501.39 772.54 487.26 786.68 526.51 825.93 583.04 769.4 590.03 776.39 526.51 839.9 473.29 786.68 501.39 758.57 526.81 783.99 540.95 769.84 503.27 732.17 445.48 789.96 590.59 935.08 648.39 877.28 610.71 839.6 596.57 853.74 621.99 879.16 593.88 907.27 540.65 854.05 604.17 790.53 611.15 797.51 554.62 854.05 593.88 893.3 608.02 879.16 582.6 853.74 610.71 825.63 662.36 877.28 590.59 949.05"/><polygon points="525.8 1013.83 474.15 962.19 502.26 934.07 527.68 959.49 541.82 945.35 502.56 906.1 446.03 962.63 439.04 955.64 502.56 892.13 555.79 945.35 527.68 973.46 502.26 948.05 488.12 962.19 525.8 999.86 583.6 942.07 438.49 796.95 380.69 854.75 418.36 892.43 432.5 878.29 407.09 852.87 435.19 824.76 488.43 877.99 424.91 941.5 417.92 934.52 474.45 877.99 435.19 838.73 421.06 852.87 446.47 878.29 418.36 906.4 366.71 854.75 438.49 782.98 597.57 942.07 525.8 1013.83"/><polygon points="830.08 709.57 778.43 657.92 806.54 629.8 831.96 655.22 846.1 641.08 806.84 601.83 750.31 658.36 743.33 651.37 806.84 587.86 860.07 641.08 831.96 669.19 806.54 643.78 792.4 657.92 830.08 695.59 887.88 637.8 742.77 492.68 684.97 550.48 722.64 588.16 736.78 574.02 711.37 548.6 739.48 520.49 792.71 573.72 729.19 637.23 722.2 630.25 778.73 573.72 739.48 534.46 725.34 548.6 750.76 574.02 722.64 602.13 670.99 550.48 742.77 478.71 901.85 637.8 830.08 709.57"/><polygon points="525.8 709.57 474.15 657.92 502.26 629.8 527.68 655.22 541.82 641.08 502.56 601.83 446.03 658.36 439.04 651.37 502.56 587.86 555.79 641.08 527.68 669.19 502.26 643.78 488.12 657.92 525.8 695.59 583.6 637.8 438.49 492.68 380.69 550.48 418.36 588.16 432.5 574.02 407.09 548.6 435.19 520.49 488.43 573.72 424.91 637.23 417.92 630.25 474.45 573.72 435.19 534.46 421.06 548.6 446.47 574.02 418.36 602.13 366.71 550.48 438.49 478.71 597.57 637.8 525.8 709.57"/></g><g class="cls-5"><polygon points="742.73 188.38 583.64 29.29 655.41 -42.48 707.07 9.17 678.95 37.28 653.53 11.87 639.4 26 678.65 65.26 735.18 8.73 742.17 15.71 678.65 79.23 625.43 26 653.53 -2.11 678.95 23.31 693.09 9.17 655.41 -28.51 597.62 29.29 742.73 174.41 800.53 116.61 762.85 78.93 748.71 93.07 774.13 118.48 746.02 146.6 692.79 93.37 756.31 29.85 763.29 36.84 706.76 93.37 746.02 132.62 760.16 118.48 734.74 93.07 762.85 64.96 814.5 116.61 742.73 188.38"/><polygon points="677.94 253.16 626.29 201.51 654.4 173.4 679.82 198.82 693.96 184.68 654.7 145.42 598.17 201.96 591.19 194.97 654.7 131.45 707.93 184.68 679.82 212.79 654.4 187.37 640.26 201.51 677.94 239.19 735.74 181.39 590.63 36.28 532.83 94.08 570.5 131.75 584.64 117.62 559.23 92.2 587.34 64.09 640.57 117.31 577.05 180.83 570.06 173.84 626.59 117.31 587.34 78.06 573.2 92.2 598.62 117.62 570.5 145.72 518.85 94.08 590.63 22.3 749.71 181.39 677.94 253.16"/><polygon points="438.45 188.38 279.36 29.29 351.13 -42.48 402.78 9.17 374.67 37.28 349.25 11.87 335.12 26 374.37 65.26 430.9 8.73 437.89 15.71 374.37 79.23 321.15 26 349.25 -2.11 374.67 23.31 388.81 9.17 351.13 -28.51 293.34 29.29 438.45 174.41 496.25 116.61 458.57 78.93 444.43 93.07 469.85 118.48 441.74 146.6 388.51 93.37 452.03 29.85 459.01 36.84 402.48 93.37 441.74 132.62 455.88 118.48 430.46 93.07 458.57 64.96 510.22 116.61 438.45 188.38"/><polygon points="373.66 253.16 322.01 201.51 350.12 173.4 375.54 198.82 389.68 184.68 350.42 145.42 293.89 201.96 286.9 194.97 350.42 131.45 403.65 184.68 375.54 212.79 350.12 187.37 335.98 201.51 373.66 239.19 431.46 181.39 286.34 36.28 228.54 94.08 266.22 131.75 280.36 117.62 254.95 92.2 283.05 64.09 336.29 117.31 272.77 180.83 265.78 173.84 322.31 117.31 283.05 78.06 268.92 92.2 294.33 117.62 266.22 145.72 214.57 94.08 286.34 22.3 445.43 181.39 373.66 253.16"/><polygon points="590.59 36.24 431.5 -122.85 503.27 -194.61 554.92 -142.96 526.81 -114.85 501.39 -140.27 487.26 -126.13 526.51 -86.88 583.04 -143.41 590.03 -136.42 526.51 -72.9 473.29 -126.13 501.39 -154.24 526.81 -128.82 540.95 -142.96 503.27 -180.64 445.48 -122.85 590.59 22.27 648.39 -35.53 610.71 -73.2 596.57 -59.07 621.99 -33.65 593.88 -5.54 540.65 -58.76 604.17 -122.28 611.15 -115.29 554.62 -58.76 593.88 -19.51 608.02 -33.65 582.6 -59.07 610.71 -87.18 662.36 -35.53 590.59 36.24"/><polygon points="525.8 101.03 474.15 49.38 502.26 21.26 527.68 46.68 541.82 32.54 502.56 -6.71 446.03 49.82 439.04 42.84 502.56 -20.68 555.79 32.54 527.68 60.65 502.26 35.24 488.12 49.38 525.8 87.05 583.6 29.26 438.49 -115.86 380.69 -58.06 418.36 -20.38 432.5 -34.52 407.09 -59.94 435.19 -88.05 488.43 -34.82 424.91 28.69 417.92 21.71 474.45 -34.82 435.19 -74.08 421.06 -59.94 446.47 -34.52 418.36 -6.41 366.71 -58.06 438.49 -129.83 597.57 29.26 525.8 101.03"/><polygon points="286.31 36.24 127.22 -122.85 198.99 -194.61 250.64 -142.96 222.53 -114.85 197.11 -140.27 182.98 -126.13 222.23 -86.88 278.76 -143.41 285.75 -136.42 222.23 -72.9 169 -126.13 197.11 -154.24 222.53 -128.82 236.67 -142.96 198.99 -180.64 141.2 -122.85 286.31 22.27 344.11 -35.53 306.43 -73.2 292.29 -59.07 317.71 -33.65 289.6 -5.54 236.37 -58.76 299.88 -122.28 306.87 -115.29 250.34 -58.76 289.6 -19.51 303.73 -33.65 278.32 -59.07 306.43 -87.18 358.08 -35.53 286.31 36.24"/><polygon points="221.52 101.03 169.87 49.38 197.98 21.26 223.4 46.68 237.53 32.54 198.28 -6.71 141.75 49.82 134.76 42.84 198.28 -20.68 251.51 32.54 223.4 60.65 197.98 35.24 183.84 49.38 221.52 87.05 279.32 29.26 134.2 -115.86 76.4 -58.06 114.08 -20.38 128.22 -34.52 102.8 -59.94 130.91 -88.05 184.14 -34.82 120.63 28.69 113.64 21.71 170.17 -34.82 130.91 -74.08 116.78 -59.94 142.19 -34.52 114.08 -6.41 62.43 -58.06 134.2 -129.83 293.29 29.26 221.52 101.03"/></g><g class="cls-6"><polygon points="742.73 492.65 583.64 333.56 655.41 261.79 707.07 313.44 678.95 341.55 653.53 316.14 639.4 330.27 678.65 369.53 735.18 313 742.17 319.98 678.65 383.5 625.43 330.27 653.53 302.16 678.95 327.58 693.09 313.44 655.41 275.76 597.62 333.56 742.73 478.68 800.53 420.88 762.85 383.2 748.71 397.34 774.13 422.75 746.02 450.87 692.79 397.64 756.31 334.12 763.29 341.11 706.76 397.64 746.02 436.89 760.16 422.75 734.74 397.34 762.85 369.23 814.5 420.88 742.73 492.65"/><polygon points="677.94 557.43 626.29 505.78 654.4 477.67 679.82 503.08 693.96 488.95 654.7 449.69 598.17 506.23 591.19 499.24 654.7 435.72 707.93 488.95 679.82 517.06 654.4 491.64 640.26 505.78 677.94 543.46 735.74 485.66 590.63 340.55 532.83 398.35 570.5 436.02 584.64 421.88 559.23 396.47 587.34 368.35 640.57 421.58 577.05 485.1 570.06 478.11 626.59 421.58 587.34 382.33 573.2 396.47 598.62 421.88 570.5 449.99 518.85 398.35 590.63 326.57 749.71 485.66 677.94 557.43"/><polygon points="438.45 492.65 279.36 333.56 351.13 261.79 402.78 313.44 374.67 341.55 349.25 316.14 335.12 330.27 374.37 369.53 430.9 313 437.89 319.98 374.37 383.5 321.15 330.27 349.25 302.16 374.67 327.58 388.81 313.44 351.13 275.76 293.34 333.56 438.45 478.68 496.25 420.88 458.57 383.2 444.43 397.34 469.85 422.75 441.74 450.87 388.51 397.64 452.03 334.12 459.01 341.11 402.48 397.64 441.74 436.89 455.88 422.75 430.46 397.34 458.57 369.23 510.22 420.88 438.45 492.65"/><polygon points="373.66 557.43 322.01 505.78 350.12 477.67 375.54 503.08 389.68 488.95 350.42 449.69 293.89 506.23 286.9 499.24 350.42 435.72 403.65 488.95 375.54 517.06 350.12 491.64 335.98 505.78 373.66 543.46 431.46 485.66 286.34 340.55 228.54 398.35 266.22 436.02 280.36 421.88 254.95 396.47 283.05 368.35 336.29 421.58 272.77 485.1 265.78 478.11 322.31 421.58 283.05 382.33 268.92 396.47 294.33 421.88 266.22 449.99 214.57 398.35 286.34 326.57 445.43 485.66 373.66 557.43"/><polygon points="742.73 188.38 583.64 29.29 655.41 -42.48 707.07 9.17 678.95 37.28 653.53 11.87 639.4 26 678.65 65.26 735.18 8.73 742.17 15.71 678.65 79.23 625.43 26 653.53 -2.11 678.95 23.31 693.09 9.17 655.41 -28.51 597.62 29.29 742.73 174.41 800.53 116.61 762.85 78.93 748.71 93.07 774.13 118.48 746.02 146.6 692.79 93.37 756.31 29.85 763.29 36.84 706.76 93.37 746.02 132.62 760.16 118.48 734.74 93.07 762.85 64.96 814.5 116.61 742.73 188.38"/><polygon points="677.94 253.16 626.29 201.51 654.4 173.4 679.82 198.82 693.96 184.68 654.7 145.42 598.17 201.96 591.19 194.97 654.7 131.45 707.93 184.68 679.82 212.79 654.4 187.37 640.26 201.51 677.94 239.19 735.74 181.39 590.63 36.28 532.83 94.08 570.5 131.75 584.64 117.62 559.23 92.2 587.34 64.09 640.57 117.31 577.05 180.83 570.06 173.84 626.59 117.31 587.34 78.06 573.2 92.2 598.62 117.62 570.5 145.72 518.85 94.08 590.63 22.3 749.71 181.39 677.94 253.16"/><polygon points="590.59 340.51 431.5 181.42 503.27 109.66 554.92 161.31 526.81 189.42 501.39 164 487.26 178.14 526.51 217.39 583.04 160.86 590.03 167.85 526.51 231.36 473.29 178.14 501.39 150.03 526.81 175.45 540.95 161.31 503.27 123.63 445.48 181.42 590.59 326.54 648.39 268.74 610.71 231.07 596.57 245.2 621.99 270.62 593.88 298.73 540.65 245.51 604.17 181.99 611.15 188.97 554.62 245.51 593.88 284.76 608.02 270.62 582.6 245.2 610.71 217.09 662.36 268.74 590.59 340.51"/><polygon points="525.8 405.3 474.15 353.65 502.26 325.53 527.68 350.95 541.82 336.81 502.56 297.56 446.03 354.09 439.04 347.1 502.56 283.59 555.79 336.81 527.68 364.92 502.26 339.51 488.12 353.65 525.8 391.32 583.6 333.53 438.49 188.41 380.69 246.21 418.36 283.89 432.5 269.75 407.09 244.33 435.19 216.22 488.43 269.45 424.91 332.96 417.92 325.98 474.45 269.45 435.19 230.19 421.06 244.33 446.47 269.75 418.36 297.86 366.71 246.21 438.49 174.44 597.57 333.53 525.8 405.3"/><polygon points="438.45 188.38 279.36 29.29 351.13 -42.48 402.78 9.17 374.67 37.28 349.25 11.87 335.12 26 374.37 65.26 430.9 8.73 437.89 15.71 374.37 79.23 321.15 26 349.25 -2.11 374.67 23.31 388.81 9.17 351.13 -28.51 293.34 29.29 438.45 174.41 496.25 116.61 458.57 78.93 444.43 93.07 469.85 118.48 441.74 146.6 388.51 93.37 452.03 29.85 459.01 36.84 402.48 93.37 441.74 132.62 455.88 118.48 430.46 93.07 458.57 64.96 510.22 116.61 438.45 188.38"/><polygon points="373.66 253.16 322.01 201.51 350.12 173.4 375.54 198.82 389.68 184.68 350.42 145.42 293.89 201.96 286.9 194.97 350.42 131.45 403.65 184.68 375.54 212.79 350.12 187.37 335.98 201.51 373.66 239.19 431.46 181.39 286.34 36.28 228.54 94.08 266.22 131.75 280.36 117.62 254.95 92.2 283.05 64.09 336.29 117.31 272.77 180.83 265.78 173.84 322.31 117.31 283.05 78.06 268.92 92.2 294.33 117.62 266.22 145.72 214.57 94.08 286.34 22.3 445.43 181.39 373.66 253.16"/><polygon points="286.31 340.51 127.22 181.42 198.99 109.66 250.64 161.31 222.53 189.42 197.11 164 182.98 178.14 222.23 217.39 278.76 160.86 285.75 167.85 222.23 231.36 169 178.14 197.11 150.03 222.53 175.45 236.67 161.31 198.99 123.63 141.2 181.42 286.31 326.54 344.11 268.74 306.43 231.07 292.29 245.2 317.71 270.62 289.6 298.73 236.37 245.51 299.88 181.99 306.87 188.97 250.34 245.51 289.6 284.76 303.73 270.62 278.32 245.2 306.43 217.09 358.08 268.74 286.31 340.51"/><polygon points="221.52 405.3 169.87 353.65 197.98 325.53 223.4 350.95 237.53 336.81 198.28 297.56 141.75 354.09 134.76 347.1 198.28 283.59 251.51 336.81 223.4 364.92 197.98 339.51 183.84 353.65 221.52 391.32 279.32 333.53 134.2 188.41 76.4 246.21 114.08 283.89 128.22 269.75 102.8 244.33 130.91 216.22 184.14 269.45 120.63 332.96 113.64 325.98 170.17 269.45 130.91 230.19 116.78 244.33 142.19 269.75 114.08 297.86 62.43 246.21 134.2 174.44 293.29 333.53 221.52 405.3"/><polygon points="525.8 101.03 474.15 49.38 502.26 21.26 527.68 46.68 541.82 32.54 502.56 -6.71 446.03 49.82 439.04 42.84 502.56 -20.68 555.79 32.54 527.68 60.65 502.26 35.24 488.12 49.38 525.8 87.05 583.6 29.26 438.49 -115.86 380.69 -58.06 418.36 -20.38 432.5 -34.52 407.09 -59.94 435.19 -88.05 488.43 -34.82 424.91 28.69 417.92 21.71 474.45 -34.82 435.19 -74.08 421.06 -59.94 446.47 -34.52 418.36 -6.41 366.71 -58.06 438.49 -129.83 597.57 29.26 525.8 101.03"/><polygon points="221.52 101.03 169.87 49.38 197.98 21.26 223.4 46.68 237.53 32.54 198.28 -6.71 141.75 49.82 134.76 42.84 198.28 -20.68 251.51 32.54 223.4 60.65 197.98 35.24 183.84 49.38 221.52 87.05 279.32 29.26 134.2 -115.86 76.4 -58.06 114.08 -20.38 128.22 -34.52 102.8 -59.94 130.91 -88.05 184.14 -34.82 120.63 28.69 113.64 21.71 170.17 -34.82 130.91 -74.08 116.78 -59.94 142.19 -34.52 114.08 -6.41 62.43 -58.06 134.2 -129.83 293.29 29.26 221.52 101.03"/></g><g class="cls-7"><polygon points="742.73 796.92 583.64 637.83 655.41 566.06 707.07 617.71 678.95 645.82 653.53 620.41 639.4 634.54 678.65 673.8 735.18 617.27 742.17 624.25 678.65 687.77 625.43 634.54 653.53 606.43 678.95 631.85 693.09 617.71 655.41 580.03 597.62 637.83 742.73 782.95 800.53 725.15 762.85 687.47 748.71 701.61 774.13 727.02 746.02 755.14 692.79 701.91 756.31 638.39 763.29 645.38 706.76 701.91 746.02 741.16 760.16 727.02 734.74 701.61 762.85 673.5 814.5 725.15 742.73 796.92"/><polygon points="677.94 861.7 626.29 810.05 654.4 781.94 679.82 807.35 693.96 793.22 654.7 753.96 598.17 810.5 591.19 803.51 654.7 739.99 707.93 793.22 679.82 821.33 654.4 795.91 640.26 810.05 677.94 847.73 735.74 789.93 590.63 644.81 532.83 702.61 570.5 740.29 584.64 726.15 559.23 700.74 587.34 672.62 640.57 725.85 577.05 789.37 570.06 782.38 626.59 725.85 587.34 686.6 573.2 700.74 598.62 726.15 570.5 754.26 518.85 702.61 590.63 630.84 749.71 789.93 677.94 861.7"/><polygon points="438.45 796.92 279.36 637.83 351.13 566.06 402.78 617.71 374.67 645.82 349.25 620.41 335.12 634.54 374.37 673.8 430.9 617.27 437.89 624.25 374.37 687.77 321.15 634.54 349.25 606.43 374.67 631.85 388.81 617.71 351.13 580.03 293.34 637.83 438.45 782.95 496.25 725.15 458.57 687.47 444.43 701.61 469.85 727.02 441.74 755.14 388.51 701.91 452.03 638.39 459.01 645.38 402.48 701.91 441.74 741.16 455.88 727.02 430.46 701.61 458.57 673.5 510.22 725.15 438.45 796.92"/><polygon points="373.66 861.7 322.01 810.05 350.12 781.94 375.54 807.35 389.68 793.22 350.42 753.96 293.89 810.5 286.9 803.51 350.42 739.99 403.65 793.22 375.54 821.33 350.12 795.91 335.98 810.05 373.66 847.73 431.46 789.93 286.34 644.81 228.54 702.61 266.22 740.29 280.36 726.15 254.95 700.74 283.05 672.62 336.29 725.85 272.77 789.37 265.78 782.38 322.31 725.85 283.05 686.6 268.92 700.74 294.33 726.15 266.22 754.26 214.57 702.61 286.34 630.84 445.43 789.93 373.66 861.7"/><polygon points="742.73 492.65 583.64 333.56 655.41 261.79 707.07 313.44 678.95 341.55 653.53 316.14 639.4 330.27 678.65 369.53 735.18 313 742.17 319.98 678.65 383.5 625.43 330.27 653.53 302.16 678.95 327.58 693.09 313.44 655.41 275.76 597.62 333.56 742.73 478.68 800.53 420.88 762.85 383.2 748.71 397.34 774.13 422.75 746.02 450.87 692.79 397.64 756.31 334.12 763.29 341.11 706.76 397.64 746.02 436.89 760.16 422.75 734.74 397.34 762.85 369.23 814.5 420.88 742.73 492.65"/><polygon points="677.94 557.43 626.29 505.78 654.4 477.67 679.82 503.08 693.96 488.95 654.7 449.69 598.17 506.23 591.19 499.24 654.7 435.72 707.93 488.95 679.82 517.06 654.4 491.64 640.26 505.78 677.94 543.46 735.74 485.66 590.63 340.55 532.83 398.35 570.5 436.02 584.64 421.88 559.23 396.47 587.34 368.35 640.57 421.58 577.05 485.1 570.06 478.11 626.59 421.58 587.34 382.33 573.2 396.47 598.62 421.88 570.5 449.99 518.85 398.35 590.63 326.57 749.71 485.66 677.94 557.43"/><polygon points="590.59 644.78 431.5 485.69 503.27 413.93 554.92 465.57 526.81 493.69 501.39 468.27 487.26 482.41 526.51 521.66 583.04 465.13 590.03 472.12 526.51 535.63 473.29 482.41 501.39 454.3 526.81 479.72 540.95 465.57 503.27 427.9 445.48 485.69 590.59 630.81 648.39 573.01 610.71 535.34 596.57 549.47 621.99 574.89 593.88 603 540.65 549.78 604.17 486.26 611.15 493.24 554.62 549.78 593.88 589.03 608.02 574.89 582.6 549.47 610.71 521.36 662.36 573.01 590.59 644.78"/><polygon points="525.8 709.57 474.15 657.92 502.26 629.8 527.68 655.22 541.82 641.08 502.56 601.83 446.03 658.36 439.04 651.37 502.56 587.86 555.79 641.08 527.68 669.19 502.26 643.78 488.12 657.92 525.8 695.59 583.6 637.8 438.49 492.68 380.69 550.48 418.36 588.16 432.5 574.02 407.09 548.6 435.19 520.49 488.43 573.72 424.91 637.23 417.92 630.25 474.45 573.72 435.19 534.46 421.06 548.6 446.47 574.02 418.36 602.13 366.71 550.48 438.49 478.71 597.57 637.8 525.8 709.57"/><polygon points="438.45 492.65 279.36 333.56 351.13 261.79 402.78 313.44 374.67 341.55 349.25 316.14 335.12 330.27 374.37 369.53 430.9 313 437.89 319.98 374.37 383.5 321.15 330.27 349.25 302.16 374.67 327.58 388.81 313.44 351.13 275.76 293.34 333.56 438.45 478.68 496.25 420.88 458.57 383.2 444.43 397.34 469.85 422.75 441.74 450.87 388.51 397.64 452.03 334.12 459.01 341.11 402.48 397.64 441.74 436.89 455.88 422.75 430.46 397.34 458.57 369.23 510.22 420.88 438.45 492.65"/><polygon points="373.66 557.43 322.01 505.78 350.12 477.67 375.54 503.08 389.68 488.95 350.42 449.69 293.89 506.23 286.9 499.24 350.42 435.72 403.65 488.95 375.54 517.06 350.12 491.64 335.98 505.78 373.66 543.46 431.46 485.66 286.34 340.55 228.54 398.35 266.22 436.02 280.36 421.88 254.95 396.47 283.05 368.35 336.29 421.58 272.77 485.1 265.78 478.11 322.31 421.58 283.05 382.33 268.92 396.47 294.33 421.88 266.22 449.99 214.57 398.35 286.34 326.57 445.43 485.66 373.66 557.43"/><polygon points="286.31 644.78 127.22 485.69 198.99 413.93 250.64 465.57 222.53 493.69 197.11 468.27 182.98 482.41 222.23 521.66 278.76 465.13 285.75 472.12 222.23 535.63 169 482.41 197.11 454.3 222.53 479.72 236.67 465.57 198.99 427.9 141.2 485.69 286.31 630.81 344.11 573.01 306.43 535.34 292.29 549.47 317.71 574.89 289.6 603 236.37 549.78 299.88 486.26 306.87 493.24 250.34 549.78 289.6 589.03 303.73 574.89 278.32 549.47 306.43 521.36 358.08 573.01 286.31 644.78"/><polygon points="221.52 709.57 169.87 657.92 197.98 629.8 223.4 655.22 237.53 641.08 198.28 601.83 141.75 658.36 134.76 651.37 198.28 587.86 251.51 641.08 223.4 669.19 197.98 643.78 183.84 657.92 221.52 695.59 279.32 637.8 134.2 492.68 76.4 550.48 114.08 588.16 128.22 574.02 102.8 548.6 130.91 520.49 184.14 573.72 120.63 637.23 113.64 630.25 170.17 573.72 130.91 534.46 116.78 548.6 142.19 574.02 114.08 602.13 62.43 550.48 134.2 478.71 293.29 637.8 221.52 709.57"/><polygon points="525.8 405.3 474.15 353.65 502.26 325.53 527.68 350.95 541.82 336.81 502.56 297.56 446.03 354.09 439.04 347.1 502.56 283.59 555.79 336.81 527.68 364.92 502.26 339.51 488.12 353.65 525.8 391.32 583.6 333.53 438.49 188.41 380.69 246.21 418.36 283.89 432.5 269.75 407.09 244.33 435.19 216.22 488.43 269.45 424.91 332.96 417.92 325.98 474.45 269.45 435.19 230.19 421.06 244.33 446.47 269.75 418.36 297.86 366.71 246.21 438.49 174.44 597.57 333.53 525.8 405.3"/><polygon points="221.52 405.3 169.87 353.65 197.98 325.53 223.4 350.95 237.53 336.81 198.28 297.56 141.75 354.09 134.76 347.1 198.28 283.59 251.51 336.81 223.4 364.92 197.98 339.51 183.84 353.65 221.52 391.32 279.32 333.53 134.2 188.41 76.4 246.21 114.08 283.89 128.22 269.75 102.8 244.33 130.91 216.22 184.14 269.45 120.63 332.96 113.64 325.98 170.17 269.45 130.91 230.19 116.78 244.33 142.19 269.75 114.08 297.86 62.43 246.21 134.2 174.44 293.29 333.53 221.52 405.3"/></g><g class="cls-13"><polygon points="742.73 1101.19 583.64 942.1 655.41 870.33 707.07 921.98 678.95 950.09 653.53 924.68 639.4 938.81 678.65 978.07 735.18 921.54 742.17 928.52 678.65 992.04 625.43 938.81 653.53 910.7 678.95 936.12 693.09 921.98 655.41 884.3 597.62 942.1 742.73 1087.22 800.53 1029.42 762.85 991.74 748.71 1005.88 774.13 1031.29 746.02 1059.41 692.79 1006.18 756.31 942.66 763.29 949.65 706.76 1006.18 746.02 1045.43 760.16 1031.29 734.74 1005.88 762.85 977.77 814.5 1029.42 742.73 1101.19"/><polygon points="677.94 1165.97 626.29 1114.32 654.4 1086.21 679.82 1111.62 693.96 1097.49 654.7 1058.23 598.17 1114.76 591.19 1107.78 654.7 1044.26 707.93 1097.49 679.82 1125.6 654.4 1100.18 640.26 1114.32 677.94 1152 735.74 1094.2 590.63 949.08 532.83 1006.88 570.5 1044.56 584.64 1030.42 559.23 1005.01 587.34 976.89 640.57 1030.12 577.05 1093.64 570.06 1086.65 626.59 1030.12 587.34 990.87 573.2 1005.01 598.62 1030.42 570.5 1058.53 518.85 1006.88 590.63 935.11 749.71 1094.2 677.94 1165.97"/><polygon points="438.45 1101.19 279.36 942.1 351.13 870.33 402.78 921.98 374.67 950.09 349.25 924.68 335.12 938.81 374.37 978.07 430.9 921.54 437.89 928.52 374.37 992.04 321.15 938.81 349.25 910.7 374.67 936.12 388.81 921.98 351.13 884.3 293.34 942.1 438.45 1087.22 496.25 1029.42 458.57 991.74 444.43 1005.88 469.85 1031.29 441.74 1059.41 388.51 1006.18 452.03 942.66 459.01 949.65 402.48 1006.18 441.74 1045.43 455.88 1031.29 430.46 1005.88 458.57 977.77 510.22 1029.42 438.45 1101.19"/><polygon points="373.66 1165.97 322.01 1114.32 350.12 1086.21 375.54 1111.62 389.68 1097.49 350.42 1058.23 293.89 1114.76 286.9 1107.78 350.42 1044.26 403.65 1097.49 375.54 1125.6 350.12 1100.18 335.98 1114.32 373.66 1152 431.46 1094.2 286.34 949.08 228.54 1006.88 266.22 1044.56 280.36 1030.42 254.95 1005.01 283.05 976.89 336.29 1030.12 272.77 1093.64 265.78 1086.65 322.31 1030.12 283.05 990.87 268.92 1005.01 294.33 1030.42 266.22 1058.53 214.57 1006.88 286.34 935.11 445.43 1094.2 373.66 1165.97"/><polygon points="742.73 796.92 583.64 637.83 655.41 566.06 707.07 617.71 678.95 645.82 653.53 620.41 639.4 634.54 678.65 673.8 735.18 617.27 742.17 624.25 678.65 687.77 625.43 634.54 653.53 606.43 678.95 631.85 693.09 617.71 655.41 580.03 597.62 637.83 742.73 782.95 800.53 725.15 762.85 687.47 748.71 701.61 774.13 727.02 746.02 755.14 692.79 701.91 756.31 638.39 763.29 645.38 706.76 701.91 746.02 741.16 760.16 727.02 734.74 701.61 762.85 673.5 814.5 725.15 742.73 796.92"/><polygon points="677.94 861.7 626.29 810.05 654.4 781.94 679.82 807.35 693.96 793.22 654.7 753.96 598.17 810.5 591.19 803.51 654.7 739.99 707.93 793.22 679.82 821.33 654.4 795.91 640.26 810.05 677.94 847.73 735.74 789.93 590.63 644.81 532.83 702.61 570.5 740.29 584.64 726.15 559.23 700.74 587.34 672.62 640.57 725.85 577.05 789.37 570.06 782.38 626.59 725.85 587.34 686.6 573.2 700.74 598.62 726.15 570.5 754.26 518.85 702.61 590.63 630.84 749.71 789.93 677.94 861.7"/><polygon points="590.59 949.05 431.5 789.96 503.27 718.2 554.92 769.84 526.81 797.96 501.39 772.54 487.26 786.68 526.51 825.93 583.04 769.4 590.03 776.39 526.51 839.9 473.29 786.68 501.39 758.57 526.81 783.99 540.95 769.84 503.27 732.17 445.48 789.96 590.59 935.08 648.39 877.28 610.71 839.6 596.57 853.74 621.99 879.16 593.88 907.27 540.65 854.05 604.17 790.53 611.15 797.51 554.62 854.05 593.88 893.3 608.02 879.16 582.6 853.74 610.71 825.63 662.36 877.28 590.59 949.05"/><polygon points="525.8 1013.83 474.15 962.19 502.26 934.07 527.68 959.49 541.82 945.35 502.56 906.1 446.03 962.63 439.04 955.64 502.56 892.13 555.79 945.35 527.68 973.46 502.26 948.05 488.12 962.19 525.8 999.86 583.6 942.07 438.49 796.95 380.69 854.75 418.36 892.43 432.5 878.29 407.09 852.87 435.19 824.76 488.43 877.99 424.91 941.5 417.92 934.52 474.45 877.99 435.19 838.73 421.06 852.87 446.47 878.29 418.36 906.4 366.71 854.75 438.49 782.98 597.57 942.07 525.8 1013.83"/><polygon points="438.45 796.92 279.36 637.83 351.13 566.06 402.78 617.71 374.67 645.82 349.25 620.41 335.12 634.54 374.37 673.8 430.9 617.27 437.89 624.25 374.37 687.77 321.15 634.54 349.25 606.43 374.67 631.85 388.81 617.71 351.13 580.03 293.34 637.83 438.45 782.95 496.25 725.15 458.57 687.47 444.43 701.61 469.85 727.02 441.74 755.14 388.51 701.91 452.03 638.39 459.01 645.38 402.48 701.91 441.74 741.16 455.88 727.02 430.46 701.61 458.57 673.5 510.22 725.15 438.45 796.92"/><polygon points="373.66 861.7 322.01 810.05 350.12 781.94 375.54 807.35 389.68 793.22 350.42 753.96 293.89 810.5 286.9 803.51 350.42 739.99 403.65 793.22 375.54 821.33 350.12 795.91 335.98 810.05 373.66 847.73 431.46 789.93 286.34 644.81 228.54 702.61 266.22 740.29 280.36 726.15 254.95 700.74 283.05 672.62 336.29 725.85 272.77 789.37 265.78 782.38 322.31 725.85 283.05 686.6 268.92 700.74 294.33 726.15 266.22 754.26 214.57 702.61 286.34 630.84 445.43 789.93 373.66 861.7"/><polygon points="286.31 949.05 127.22 789.96 198.99 718.2 250.64 769.84 222.53 797.96 197.11 772.54 182.98 786.68 222.23 825.93 278.76 769.4 285.75 776.39 222.23 839.9 169 786.68 197.11 758.57 222.53 783.99 236.67 769.84 198.99 732.17 141.2 789.96 286.31 935.08 344.11 877.28 306.43 839.6 292.29 853.74 317.71 879.16 289.6 907.27 236.37 854.05 299.88 790.53 306.87 797.51 250.34 854.05 289.6 893.3 303.73 879.16 278.32 853.74 306.43 825.63 358.08 877.28 286.31 949.05"/><polygon points="221.52 1013.83 169.87 962.19 197.98 934.07 223.4 959.49 237.53 945.35 198.28 906.1 141.75 962.63 134.76 955.64 198.28 892.13 251.51 945.35 223.4 973.46 197.98 948.05 183.84 962.19 221.52 999.86 279.32 942.07 134.2 796.95 76.4 854.75 114.08 892.43 128.22 878.29 102.8 852.87 130.91 824.76 184.14 877.99 120.63 941.5 113.64 934.52 170.17 877.99 130.91 838.73 116.78 852.87 142.19 878.29 114.08 906.4 62.43 854.75 134.2 782.98 293.29 942.07 221.52 1013.83"/><polygon points="525.8 709.57 474.15 657.92 502.26 629.8 527.68 655.22 541.82 641.08 502.56 601.83 446.03 658.36 439.04 651.37 502.56 587.86 555.79 641.08 527.68 669.19 502.26 643.78 488.12 657.92 525.8 695.59 583.6 637.8 438.49 492.68 380.69 550.48 418.36 588.16 432.5 574.02 407.09 548.6 435.19 520.49 488.43 573.72 424.91 637.23 417.92 630.25 474.45 573.72 435.19 534.46 421.06 548.6 446.47 574.02 418.36 602.13 366.71 550.48 438.49 478.71 597.57 637.8 525.8 709.57"/><polygon points="221.52 709.57 169.87 657.92 197.98 629.8 223.4 655.22 237.53 641.08 198.28 601.83 141.75 658.36 134.76 651.37 198.28 587.86 251.51 641.08 223.4 669.19 197.98 643.78 183.84 657.92 221.52 695.59 279.32 637.8 134.2 492.68 76.4 550.48 114.08 588.16 128.22 574.02 102.8 548.6 130.91 520.49 184.14 573.72 120.63 637.23 113.64 630.25 170.17 573.72 130.91 534.46 116.78 548.6 142.19 574.02 114.08 602.13 62.43 550.48 134.2 478.71 293.29 637.8 221.52 709.57"/></g><g class="cls-17"><polygon points="438.45 188.38 279.36 29.29 351.13 -42.48 402.78 9.17 374.67 37.28 349.25 11.87 335.12 26 374.37 65.26 430.9 8.73 437.89 15.71 374.37 79.23 321.15 26 349.25 -2.11 374.67 23.31 388.81 9.17 351.13 -28.51 293.34 29.29 438.45 174.41 496.25 116.61 458.57 78.93 444.43 93.07 469.85 118.48 441.74 146.6 388.51 93.37 452.03 29.85 459.01 36.84 402.48 93.37 441.74 132.62 455.88 118.48 430.46 93.07 458.57 64.96 510.22 116.61 438.45 188.38"/><polygon points="373.66 253.16 322.01 201.51 350.12 173.4 375.54 198.82 389.68 184.68 350.42 145.42 293.89 201.96 286.9 194.97 350.42 131.45 403.65 184.68 375.54 212.79 350.12 187.37 335.98 201.51 373.66 239.19 431.46 181.39 286.34 36.28 228.54 94.08 266.22 131.75 280.36 117.62 254.95 92.2 283.05 64.09 336.29 117.31 272.77 180.83 265.78 173.84 322.31 117.31 283.05 78.06 268.92 92.2 294.33 117.62 266.22 145.72 214.57 94.08 286.34 22.3 445.43 181.39 373.66 253.16"/><polygon points="134.17 188.38 -24.92 29.29 46.85 -42.48 98.5 9.17 70.39 37.28 44.97 11.87 30.84 26 70.09 65.26 126.62 8.73 133.61 15.71 70.09 79.23 16.86 26 44.97 -2.11 70.39 23.31 84.53 9.17 46.85 -28.51 -10.95 29.29 134.17 174.41 191.97 116.61 154.29 78.93 140.15 93.07 165.57 118.48 137.46 146.6 84.23 93.37 147.74 29.85 154.73 36.84 98.2 93.37 137.46 132.62 151.59 118.48 126.18 93.07 154.29 64.96 205.94 116.61 134.17 188.38"/><polygon points="69.38 253.16 17.73 201.51 45.84 173.4 71.26 198.82 85.39 184.68 46.14 145.42 -10.39 201.96 -17.38 194.97 46.14 131.45 99.37 184.68 71.26 212.79 45.84 187.37 31.7 201.51 69.38 239.19 127.18 181.39 -17.94 36.28 -75.74 94.08 -38.06 131.75 -23.92 117.62 -49.34 92.2 -21.23 64.09 32 117.31 -31.51 180.83 -38.5 173.84 18.03 117.31 -21.23 78.06 -35.36 92.2 -9.95 117.62 -38.06 145.72 -89.71 94.08 -17.94 22.3 141.15 181.39 69.38 253.16"/><polygon points="286.31 36.24 127.22 -122.85 198.99 -194.61 250.64 -142.96 222.53 -114.85 197.11 -140.27 182.98 -126.13 222.23 -86.88 278.76 -143.41 285.75 -136.42 222.23 -72.9 169 -126.13 197.11 -154.24 222.53 -128.82 236.67 -142.96 198.99 -180.64 141.2 -122.85 286.31 22.27 344.11 -35.53 306.43 -73.2 292.29 -59.07 317.71 -33.65 289.6 -5.54 236.37 -58.76 299.88 -122.28 306.87 -115.29 250.34 -58.76 289.6 -19.51 303.73 -33.65 278.32 -59.07 306.43 -87.18 358.08 -35.53 286.31 36.24"/><polygon points="221.52 101.03 169.87 49.38 197.98 21.26 223.4 46.68 237.53 32.54 198.28 -6.71 141.75 49.82 134.76 42.84 198.28 -20.68 251.51 32.54 223.4 60.65 197.98 35.24 183.84 49.38 221.52 87.05 279.32 29.26 134.2 -115.86 76.4 -58.06 114.08 -20.38 128.22 -34.52 102.8 -59.94 130.91 -88.05 184.14 -34.82 120.63 28.69 113.64 21.71 170.17 -34.82 130.91 -74.08 116.78 -59.94 142.19 -34.52 114.08 -6.41 62.43 -58.06 134.2 -129.83 293.29 29.26 221.52 101.03"/><polygon points="-17.97 36.24 -177.06 -122.85 -105.29 -194.61 -53.64 -142.96 -81.75 -114.85 -107.17 -140.27 -121.3 -126.13 -82.05 -86.88 -25.52 -143.41 -18.53 -136.42 -82.05 -72.9 -135.28 -126.13 -107.17 -154.24 -81.75 -128.82 -67.61 -142.96 -105.29 -180.64 -163.09 -122.85 -17.97 22.27 39.83 -35.53 2.15 -73.2 -11.99 -59.07 13.43 -33.65 -14.68 -5.54 -67.91 -58.76 -4.4 -122.28 2.59 -115.29 -53.94 -58.76 -14.68 -19.51 -.55 -33.65 -25.96 -59.07 2.15 -87.18 53.8 -35.53 -17.97 36.24"/></g><g class="cls-14"><polygon points="438.45 492.65 279.36 333.56 351.13 261.79 402.78 313.44 374.67 341.55 349.25 316.14 335.12 330.27 374.37 369.53 430.9 313 437.89 319.98 374.37 383.5 321.15 330.27 349.25 302.16 374.67 327.58 388.81 313.44 351.13 275.76 293.34 333.56 438.45 478.68 496.25 420.88 458.57 383.2 444.43 397.34 469.85 422.75 441.74 450.87 388.51 397.64 452.03 334.12 459.01 341.11 402.48 397.64 441.74 436.89 455.88 422.75 430.46 397.34 458.57 369.23 510.22 420.88 438.45 492.65"/><polygon points="373.66 557.43 322.01 505.78 350.12 477.67 375.54 503.08 389.68 488.95 350.42 449.69 293.89 506.23 286.9 499.24 350.42 435.72 403.65 488.95 375.54 517.06 350.12 491.64 335.98 505.78 373.66 543.46 431.46 485.66 286.34 340.55 228.54 398.35 266.22 436.02 280.36 421.88 254.95 396.47 283.05 368.35 336.29 421.58 272.77 485.1 265.78 478.11 322.31 421.58 283.05 382.33 268.92 396.47 294.33 421.88 266.22 449.99 214.57 398.35 286.34 326.57 445.43 485.66 373.66 557.43"/><polygon points="134.17 492.65 -24.92 333.56 46.85 261.79 98.5 313.44 70.39 341.55 44.97 316.14 30.84 330.27 70.09 369.53 126.62 313 133.61 319.98 70.09 383.5 16.86 330.27 44.97 302.16 70.39 327.58 84.53 313.44 46.85 275.76 -10.95 333.56 134.17 478.68 191.97 420.88 154.29 383.2 140.15 397.34 165.57 422.75 137.46 450.87 84.23 397.64 147.74 334.12 154.73 341.11 98.2 397.64 137.46 436.89 151.59 422.75 126.18 397.34 154.29 369.23 205.94 420.88 134.17 492.65"/><polygon points="69.38 557.43 17.73 505.78 45.84 477.67 71.26 503.08 85.39 488.95 46.14 449.69 -10.39 506.23 -17.38 499.24 46.14 435.72 99.37 488.95 71.26 517.06 45.84 491.64 31.7 505.78 69.38 543.46 127.18 485.66 -17.94 340.55 -75.74 398.35 -38.06 436.02 -23.92 421.88 -49.34 396.47 -21.23 368.35 32 421.58 -31.51 485.1 -38.5 478.11 18.03 421.58 -21.23 382.33 -35.36 396.47 -9.95 421.88 -38.06 449.99 -89.71 398.35 -17.94 326.57 141.15 485.66 69.38 557.43"/><polygon points="438.45 188.38 279.36 29.29 351.13 -42.48 402.78 9.17 374.67 37.28 349.25 11.87 335.12 26 374.37 65.26 430.9 8.73 437.89 15.71 374.37 79.23 321.15 26 349.25 -2.11 374.67 23.31 388.81 9.17 351.13 -28.51 293.34 29.29 438.45 174.41 496.25 116.61 458.57 78.93 444.43 93.07 469.85 118.48 441.74 146.6 388.51 93.37 452.03 29.85 459.01 36.84 402.48 93.37 441.74 132.62 455.88 118.48 430.46 93.07 458.57 64.96 510.22 116.61 438.45 188.38"/><polygon points="373.66 253.16 322.01 201.51 350.12 173.4 375.54 198.82 389.68 184.68 350.42 145.42 293.89 201.96 286.9 194.97 350.42 131.45 403.65 184.68 375.54 212.79 350.12 187.37 335.98 201.51 373.66 239.19 431.46 181.39 286.34 36.28 228.54 94.08 266.22 131.75 280.36 117.62 254.95 92.2 283.05 64.09 336.29 117.31 272.77 180.83 265.78 173.84 322.31 117.31 283.05 78.06 268.92 92.2 294.33 117.62 266.22 145.72 214.57 94.08 286.34 22.3 445.43 181.39 373.66 253.16"/><polygon points="286.31 340.51 127.22 181.42 198.99 109.66 250.64 161.31 222.53 189.42 197.11 164 182.98 178.14 222.23 217.39 278.76 160.86 285.75 167.85 222.23 231.36 169 178.14 197.11 150.03 222.53 175.45 236.67 161.31 198.99 123.63 141.2 181.42 286.31 326.54 344.11 268.74 306.43 231.07 292.29 245.2 317.71 270.62 289.6 298.73 236.37 245.51 299.88 181.99 306.87 188.97 250.34 245.51 289.6 284.76 303.73 270.62 278.32 245.2 306.43 217.09 358.08 268.74 286.31 340.51"/><polygon points="221.52 405.3 169.87 353.65 197.98 325.53 223.4 350.95 237.53 336.81 198.28 297.56 141.75 354.09 134.76 347.1 198.28 283.59 251.51 336.81 223.4 364.92 197.98 339.51 183.84 353.65 221.52 391.32 279.32 333.53 134.2 188.41 76.4 246.21 114.08 283.89 128.22 269.75 102.8 244.33 130.91 216.22 184.14 269.45 120.63 332.96 113.64 325.98 170.17 269.45 130.91 230.19 116.78 244.33 142.19 269.75 114.08 297.86 62.43 246.21 134.2 174.44 293.29 333.53 221.52 405.3"/><polygon points="134.17 188.38 -24.92 29.29 46.85 -42.48 98.5 9.17 70.39 37.28 44.97 11.87 30.84 26 70.09 65.26 126.62 8.73 133.61 15.71 70.09 79.23 16.86 26 44.97 -2.11 70.39 23.31 84.53 9.17 46.85 -28.51 -10.95 29.29 134.17 174.41 191.97 116.61 154.29 78.93 140.15 93.07 165.57 118.48 137.46 146.6 84.23 93.37 147.74 29.85 154.73 36.84 98.2 93.37 137.46 132.62 151.59 118.48 126.18 93.07 154.29 64.96 205.94 116.61 134.17 188.38"/><polygon points="69.38 253.16 17.73 201.51 45.84 173.4 71.26 198.82 85.39 184.68 46.14 145.42 -10.39 201.96 -17.38 194.97 46.14 131.45 99.37 184.68 71.26 212.79 45.84 187.37 31.7 201.51 69.38 239.19 127.18 181.39 -17.94 36.28 -75.74 94.08 -38.06 131.75 -23.92 117.62 -49.34 92.2 -21.23 64.09 32 117.31 -31.51 180.83 -38.5 173.84 18.03 117.31 -21.23 78.06 -35.36 92.2 -9.95 117.62 -38.06 145.72 -89.71 94.08 -17.94 22.3 141.15 181.39 69.38 253.16"/><polygon points="-17.97 340.51 -177.06 181.42 -105.29 109.66 -53.64 161.31 -81.75 189.42 -107.17 164 -121.3 178.14 -82.05 217.39 -25.52 160.86 -18.53 167.85 -82.05 231.36 -135.28 178.14 -107.17 150.03 -81.75 175.45 -67.61 161.31 -105.29 123.63 -163.09 181.42 -17.97 326.54 39.83 268.74 2.15 231.07 -11.99 245.2 13.43 270.62 -14.68 298.73 -67.91 245.51 -4.4 181.99 2.59 188.97 -53.94 245.51 -14.68 284.76 -.55 270.62 -25.96 245.2 2.15 217.09 53.8 268.74 -17.97 340.51"/><polygon points="221.52 101.03 169.87 49.38 197.98 21.26 223.4 46.68 237.53 32.54 198.28 -6.71 141.75 49.82 134.76 42.84 198.28 -20.68 251.51 32.54 223.4 60.65 197.98 35.24 183.84 49.38 221.52 87.05 279.32 29.26 134.2 -115.86 76.4 -58.06 114.08 -20.38 128.22 -34.52 102.8 -59.94 130.91 -88.05 184.14 -34.82 120.63 28.69 113.64 21.71 170.17 -34.82 130.91 -74.08 116.78 -59.94 142.19 -34.52 114.08 -6.41 62.43 -58.06 134.2 -129.83 293.29 29.26 221.52 101.03"/></g><g class="cls-3"><polygon points="438.45 796.92 279.36 637.83 351.13 566.06 402.78 617.71 374.67 645.82 349.25 620.41 335.12 634.54 374.37 673.8 430.9 617.27 437.89 624.25 374.37 687.77 321.15 634.54 349.25 606.43 374.67 631.85 388.81 617.71 351.13 580.03 293.34 637.83 438.45 782.95 496.25 725.15 458.57 687.47 444.43 701.61 469.85 727.02 441.74 755.14 388.51 701.91 452.03 638.39 459.01 645.38 402.48 701.91 441.74 741.16 455.88 727.02 430.46 701.61 458.57 673.5 510.22 725.15 438.45 796.92"/><polygon points="373.66 861.7 322.01 810.05 350.12 781.94 375.54 807.35 389.68 793.22 350.42 753.96 293.89 810.5 286.9 803.51 350.42 739.99 403.65 793.22 375.54 821.33 350.12 795.91 335.98 810.05 373.66 847.73 431.46 789.93 286.34 644.81 228.54 702.61 266.22 740.29 280.36 726.15 254.95 700.74 283.05 672.62 336.29 725.85 272.77 789.37 265.78 782.38 322.31 725.85 283.05 686.6 268.92 700.74 294.33 726.15 266.22 754.26 214.57 702.61 286.34 630.84 445.43 789.93 373.66 861.7"/><polygon points="134.17 796.92 -24.92 637.83 46.85 566.06 98.5 617.71 70.39 645.82 44.97 620.41 30.84 634.54 70.09 673.8 126.62 617.27 133.61 624.25 70.09 687.77 16.86 634.54 44.97 606.43 70.39 631.85 84.53 617.71 46.85 580.03 -10.95 637.83 134.17 782.95 191.97 725.15 154.29 687.47 140.15 701.61 165.57 727.02 137.46 755.14 84.23 701.91 147.74 638.39 154.73 645.38 98.2 701.91 137.46 741.16 151.59 727.02 126.18 701.61 154.29 673.5 205.94 725.15 134.17 796.92"/><polygon points="69.38 861.7 17.73 810.05 45.84 781.94 71.26 807.35 85.39 793.22 46.14 753.96 -10.39 810.5 -17.38 803.51 46.14 739.99 99.37 793.22 71.26 821.33 45.84 795.91 31.7 810.05 69.38 847.73 127.18 789.93 -17.94 644.81 -75.74 702.61 -38.06 740.29 -23.92 726.15 -49.34 700.74 -21.23 672.62 32 725.85 -31.51 789.37 -38.5 782.38 18.03 725.85 -21.23 686.6 -35.36 700.74 -9.95 726.15 -38.06 754.26 -89.71 702.61 -17.94 630.84 141.15 789.93 69.38 861.7"/><polygon points="438.45 492.65 279.36 333.56 351.13 261.79 402.78 313.44 374.67 341.55 349.25 316.14 335.12 330.27 374.37 369.53 430.9 313 437.89 319.98 374.37 383.5 321.15 330.27 349.25 302.16 374.67 327.58 388.81 313.44 351.13 275.76 293.34 333.56 438.45 478.68 496.25 420.88 458.57 383.2 444.43 397.34 469.85 422.75 441.74 450.87 388.51 397.64 452.03 334.12 459.01 341.11 402.48 397.64 441.74 436.89 455.88 422.75 430.46 397.34 458.57 369.23 510.22 420.88 438.45 492.65"/><polygon points="373.66 557.43 322.01 505.78 350.12 477.67 375.54 503.08 389.68 488.95 350.42 449.69 293.89 506.23 286.9 499.24 350.42 435.72 403.65 488.95 375.54 517.06 350.12 491.64 335.98 505.78 373.66 543.46 431.46 485.66 286.34 340.55 228.54 398.35 266.22 436.02 280.36 421.88 254.95 396.47 283.05 368.35 336.29 421.58 272.77 485.1 265.78 478.11 322.31 421.58 283.05 382.33 268.92 396.47 294.33 421.88 266.22 449.99 214.57 398.35 286.34 326.57 445.43 485.66 373.66 557.43"/><polygon points="286.31 644.78 127.22 485.69 198.99 413.93 250.64 465.57 222.53 493.69 197.11 468.27 182.98 482.41 222.23 521.66 278.76 465.13 285.75 472.12 222.23 535.63 169 482.41 197.11 454.3 222.53 479.72 236.67 465.57 198.99 427.9 141.2 485.69 286.31 630.81 344.11 573.01 306.43 535.34 292.29 549.47 317.71 574.89 289.6 603 236.37 549.78 299.88 486.26 306.87 493.24 250.34 549.78 289.6 589.03 303.73 574.89 278.32 549.47 306.43 521.36 358.08 573.01 286.31 644.78"/><polygon points="221.52 709.57 169.87 657.92 197.98 629.8 223.4 655.22 237.53 641.08 198.28 601.83 141.75 658.36 134.76 651.37 198.28 587.86 251.51 641.08 223.4 669.19 197.98 643.78 183.84 657.92 221.52 695.59 279.32 637.8 134.2 492.68 76.4 550.48 114.08 588.16 128.22 574.02 102.8 548.6 130.91 520.49 184.14 573.72 120.63 637.23 113.64 630.25 170.17 573.72 130.91 534.46 116.78 548.6 142.19 574.02 114.08 602.13 62.43 550.48 134.2 478.71 293.29 637.8 221.52 709.57"/><polygon points="134.17 492.65 -24.92 333.56 46.85 261.79 98.5 313.44 70.39 341.55 44.97 316.14 30.84 330.27 70.09 369.53 126.62 313 133.61 319.98 70.09 383.5 16.86 330.27 44.97 302.16 70.39 327.58 84.53 313.44 46.85 275.76 -10.95 333.56 134.17 478.68 191.97 420.88 154.29 383.2 140.15 397.34 165.57 422.75 137.46 450.87 84.23 397.64 147.74 334.12 154.73 341.11 98.2 397.64 137.46 436.89 151.59 422.75 126.18 397.34 154.29 369.23 205.94 420.88 134.17 492.65"/><polygon points="69.38 557.43 17.73 505.78 45.84 477.67 71.26 503.08 85.39 488.95 46.14 449.69 -10.39 506.23 -17.38 499.24 46.14 435.72 99.37 488.95 71.26 517.06 45.84 491.64 31.7 505.78 69.38 543.46 127.18 485.66 -17.94 340.55 -75.74 398.35 -38.06 436.02 -23.92 421.88 -49.34 396.47 -21.23 368.35 32 421.58 -31.51 485.1 -38.5 478.11 18.03 421.58 -21.23 382.33 -35.36 396.47 -9.95 421.88 -38.06 449.99 -89.71 398.35 -17.94 326.57 141.15 485.66 69.38 557.43"/><polygon points="-17.97 644.78 -177.06 485.69 -105.29 413.93 -53.64 465.57 -81.75 493.69 -107.17 468.27 -121.3 482.41 -82.05 521.66 -25.52 465.13 -18.53 472.12 -82.05 535.63 -135.28 482.41 -107.17 454.3 -81.75 479.72 -67.61 465.57 -105.29 427.9 -163.09 485.69 -17.97 630.81 39.83 573.01 2.15 535.34 -11.99 549.47 13.43 574.89 -14.68 603 -67.91 549.78 -4.4 486.26 2.59 493.24 -53.94 549.78 -14.68 589.03 -.55 574.89 -25.96 549.47 2.15 521.36 53.8 573.01 -17.97 644.78"/><polygon points="221.52 405.3 169.87 353.65 197.98 325.53 223.4 350.95 237.53 336.81 198.28 297.56 141.75 354.09 134.76 347.1 198.28 283.59 251.51 336.81 223.4 364.92 197.98 339.51 183.84 353.65 221.52 391.32 279.32 333.53 134.2 188.41 76.4 246.21 114.08 283.89 128.22 269.75 102.8 244.33 130.91 216.22 184.14 269.45 120.63 332.96 113.64 325.98 170.17 269.45 130.91 230.19 116.78 244.33 142.19 269.75 114.08 297.86 62.43 246.21 134.2 174.44 293.29 333.53 221.52 405.3"/></g><g class="cls-15"><polygon points="438.45 1101.19 279.36 942.1 351.13 870.33 402.78 921.98 374.67 950.09 349.25 924.68 335.12 938.81 374.37 978.07 430.9 921.54 437.89 928.52 374.37 992.04 321.15 938.81 349.25 910.7 374.67 936.12 388.81 921.98 351.13 884.3 293.34 942.1 438.45 1087.22 496.25 1029.42 458.57 991.74 444.43 1005.88 469.85 1031.29 441.74 1059.41 388.51 1006.18 452.03 942.66 459.01 949.65 402.48 1006.18 441.74 1045.43 455.88 1031.29 430.46 1005.88 458.57 977.77 510.22 1029.42 438.45 1101.19"/><polygon points="373.66 1165.97 322.01 1114.32 350.12 1086.21 375.54 1111.62 389.68 1097.49 350.42 1058.23 293.89 1114.76 286.9 1107.78 350.42 1044.26 403.65 1097.49 375.54 1125.6 350.12 1100.18 335.98 1114.32 373.66 1152 431.46 1094.2 286.34 949.08 228.54 1006.88 266.22 1044.56 280.36 1030.42 254.95 1005.01 283.05 976.89 336.29 1030.12 272.77 1093.64 265.78 1086.65 322.31 1030.12 283.05 990.87 268.92 1005.01 294.33 1030.42 266.22 1058.53 214.57 1006.88 286.34 935.11 445.43 1094.2 373.66 1165.97"/><polygon points="134.17 1101.19 -24.92 942.1 46.85 870.33 98.5 921.98 70.39 950.09 44.97 924.68 30.84 938.81 70.09 978.07 126.62 921.54 133.61 928.52 70.09 992.04 16.86 938.81 44.97 910.7 70.39 936.12 84.53 921.98 46.85 884.3 -10.95 942.1 134.17 1087.22 191.97 1029.42 154.29 991.74 140.15 1005.88 165.57 1031.29 137.46 1059.41 84.23 1006.18 147.74 942.66 154.73 949.65 98.2 1006.18 137.46 1045.43 151.59 1031.29 126.18 1005.88 154.29 977.77 205.94 1029.42 134.17 1101.19"/><polygon points="69.38 1165.97 17.73 1114.32 45.84 1086.21 71.26 1111.62 85.39 1097.49 46.14 1058.23 -10.39 1114.76 -17.38 1107.78 46.14 1044.26 99.37 1097.49 71.26 1125.6 45.84 1100.18 31.7 1114.32 69.38 1152 127.18 1094.2 -17.94 949.08 -75.74 1006.88 -38.06 1044.56 -23.92 1030.42 -49.34 1005.01 -21.23 976.89 32 1030.12 -31.51 1093.64 -38.5 1086.65 18.03 1030.12 -21.23 990.87 -35.36 1005.01 -9.95 1030.42 -38.06 1058.53 -89.71 1006.88 -17.94 935.11 141.15 1094.2 69.38 1165.97"/><polygon points="438.45 796.92 279.36 637.83 351.13 566.06 402.78 617.71 374.67 645.82 349.25 620.41 335.12 634.54 374.37 673.8 430.9 617.27 437.89 624.25 374.37 687.77 321.15 634.54 349.25 606.43 374.67 631.85 388.81 617.71 351.13 580.03 293.34 637.83 438.45 782.95 496.25 725.15 458.57 687.47 444.43 701.61 469.85 727.02 441.74 755.14 388.51 701.91 452.03 638.39 459.01 645.38 402.48 701.91 441.74 741.16 455.88 727.02 430.46 701.61 458.57 673.5 510.22 725.15 438.45 796.92"/><polygon points="373.66 861.7 322.01 810.05 350.12 781.94 375.54 807.35 389.68 793.22 350.42 753.96 293.89 810.5 286.9 803.51 350.42 739.99 403.65 793.22 375.54 821.33 350.12 795.91 335.98 810.05 373.66 847.73 431.46 789.93 286.34 644.81 228.54 702.61 266.22 740.29 280.36 726.15 254.95 700.74 283.05 672.62 336.29 725.85 272.77 789.37 265.78 782.38 322.31 725.85 283.05 686.6 268.92 700.74 294.33 726.15 266.22 754.26 214.57 702.61 286.34 630.84 445.43 789.93 373.66 861.7"/><polygon points="286.31 949.05 127.22 789.96 198.99 718.2 250.64 769.84 222.53 797.96 197.11 772.54 182.98 786.68 222.23 825.93 278.76 769.4 285.75 776.39 222.23 839.9 169 786.68 197.11 758.57 222.53 783.99 236.67 769.84 198.99 732.17 141.2 789.96 286.31 935.08 344.11 877.28 306.43 839.6 292.29 853.74 317.71 879.16 289.6 907.27 236.37 854.05 299.88 790.53 306.87 797.51 250.34 854.05 289.6 893.3 303.73 879.16 278.32 853.74 306.43 825.63 358.08 877.28 286.31 949.05"/><polygon points="221.52 1013.83 169.87 962.19 197.98 934.07 223.4 959.49 237.53 945.35 198.28 906.1 141.75 962.63 134.76 955.64 198.28 892.13 251.51 945.35 223.4 973.46 197.98 948.05 183.84 962.19 221.52 999.86 279.32 942.07 134.2 796.95 76.4 854.75 114.08 892.43 128.22 878.29 102.8 852.87 130.91 824.76 184.14 877.99 120.63 941.5 113.64 934.52 170.17 877.99 130.91 838.73 116.78 852.87 142.19 878.29 114.08 906.4 62.43 854.75 134.2 782.98 293.29 942.07 221.52 1013.83"/><polygon points="134.17 796.92 -24.92 637.83 46.85 566.06 98.5 617.71 70.39 645.82 44.97 620.41 30.84 634.54 70.09 673.8 126.62 617.27 133.61 624.25 70.09 687.77 16.86 634.54 44.97 606.43 70.39 631.85 84.53 617.71 46.85 580.03 -10.95 637.83 134.17 782.95 191.97 725.15 154.29 687.47 140.15 701.61 165.57 727.02 137.46 755.14 84.23 701.91 147.74 638.39 154.73 645.38 98.2 701.91 137.46 741.16 151.59 727.02 126.18 701.61 154.29 673.5 205.94 725.15 134.17 796.92"/><polygon points="69.38 861.7 17.73 810.05 45.84 781.94 71.26 807.35 85.39 793.22 46.14 753.96 -10.39 810.5 -17.38 803.51 46.14 739.99 99.37 793.22 71.26 821.33 45.84 795.91 31.7 810.05 69.38 847.73 127.18 789.93 -17.94 644.81 -75.74 702.61 -38.06 740.29 -23.92 726.15 -49.34 700.74 -21.23 672.62 32 725.85 -31.51 789.37 -38.5 782.38 18.03 725.85 -21.23 686.6 -35.36 700.74 -9.95 726.15 -38.06 754.26 -89.71 702.61 -17.94 630.84 141.15 789.93 69.38 861.7"/><polygon points="-17.97 949.05 -177.06 789.96 -105.29 718.2 -53.64 769.84 -81.75 797.96 -107.17 772.54 -121.3 786.68 -82.05 825.93 -25.52 769.4 -18.53 776.39 -82.05 839.9 -135.28 786.68 -107.17 758.57 -81.75 783.99 -67.61 769.84 -105.29 732.17 -163.09 789.96 -17.97 935.08 39.83 877.28 2.15 839.6 -11.99 853.74 13.43 879.16 -14.68 907.27 -67.91 854.05 -4.4 790.53 2.59 797.51 -53.94 854.05 -14.68 893.3 -.55 879.16 -25.96 853.74 2.15 825.63 53.8 877.28 -17.97 949.05"/><polygon points="221.52 709.57 169.87 657.92 197.98 629.8 223.4 655.22 237.53 641.08 198.28 601.83 141.75 658.36 134.76 651.37 198.28 587.86 251.51 641.08 223.4 669.19 197.98 643.78 183.84 657.92 221.52 695.59 279.32 637.8 134.2 492.68 76.4 550.48 114.08 588.16 128.22 574.02 102.8 548.6 130.91 520.49 184.14 573.72 120.63 637.23 113.64 630.25 170.17 573.72 130.91 534.46 116.78 548.6 142.19 574.02 114.08 602.13 62.43 550.48 134.2 478.71 293.29 637.8 221.52 709.57"/></g></g></g></svg>