<svg width="338.555" height="311.595" viewBox="0 0 677.11 623.19" fill="none" xmlns="http://www.w3.org/2000/svg">
<path fill-rule="evenodd" clip-rule="evenodd" d="M7.68 207.64V138.43H53.86V169.26H38.39V184.61H69.22V123.07H0V115.39H69.21V99.92H0V92.24H69.21V30.71H38.38V46.06H53.85V76.89H7.68V0H161.58V76.89H115.4V46.06H130.75V30.71H100.04V92.25H238.47V30.71H207.76V46.06H223.11V76.89H176.93V0H330.83V76.89H284.65V46.06H300V30.71H269.29V92.25H407.72V30.71H377.01V46.06H392.36V76.89H346.18V0H500.08V76.89H453.9V46.06H469.37V30.71H438.54V92.25H577.08V30.71H546.25V46.06H561.6V76.89H515.54V0H669.32V76.89H623.26V46.06H638.61V30.71H607.78V92.25H677.11V99.93H607.78V115.4H677.11V123.08H607.78V184.62H638.61V169.27H623.26V138.44H669.32V284.66H623.26V253.83H638.61V238.48H607.78V300.02H677.11V307.7H607.78V323.17H677.11V330.85H607.78V392.39H638.61V377.04H623.26V346.21H669.32V492.43H623.26V461.6H638.61V446.25H607.78V507.79H677.11V515.47H607.78V530.94H677.11V538.62H607.78V600.16H638.61V584.81H623.26V553.98H669.32V623.19H661.64V561.65H630.93V577.12H646.28V607.83H600.1V438.58H646.28V469.41H630.93V484.76H661.64V423.22H523.21V484.76H553.92V469.41H538.57V438.58H584.75V607.83H538.57V577.12H553.92V561.65H523.21V623.19H515.53V553.98H561.59V584.81H546.24V600.16H577.07V538.62H438.53V600.16H469.36V584.81H453.89V553.98H500.07V623.19H492.39V561.65H461.56V577.12H477.03V607.83H430.85V438.58H477.03V469.41H461.56V484.76H492.39V423.22H353.85V484.76H384.68V469.41H369.33V438.58H415.51V607.83H369.33V577.12H384.68V561.65H353.85V623.19H346.17V553.98H392.35V584.81H377V600.16H407.71V538.62H269.28V600.16H299.99V584.81H284.64V553.98H330.82V623.19H323.14V561.65H292.31V577.12H307.78V607.83H261.6V438.58H307.78V469.41H292.31V484.76H323.14V423.22H184.6V484.76H215.43V469.41H199.96V438.58H246.14V607.83H199.96V577.12H215.43V561.65H184.6V623.19H176.92V553.98H223.1V584.81H207.75V600.16H238.46V538.62H100.04V600.16H130.75V584.81H115.4V553.98H161.58V623.19H153.9V561.65H123.07V577.12H138.42V607.83H92.24V438.58H138.42V469.41H123.07V484.76H153.9V423.22H15.35V484.76H46.06V469.41H30.71V438.58H76.89V607.83H30.71V577.12H46.06V561.65H15.35V623.19H7.67V553.98H53.85V584.81H38.38V600.16H69.21V538.62H0V530.94H69.21V515.47H0V507.79H69.21V446.25H38.38V461.6H53.85V492.43H7.68V346.21H53.86V377.04H38.39V392.39H69.22V330.85H0V323.17H69.21V307.7H0V300.02H69.21V238.48H38.38V253.83H53.85V284.66H7.68V207.65V207.64ZM661.65 415.39V353.85H630.94V369.32H646.29V400.03H600.11V230.78H646.29V261.61H630.94V276.96H661.65V215.42H523.22V276.96H553.93V261.61H538.58V230.78H584.76V400.03H538.58V369.32H553.93V353.85H523.22V415.39H661.65ZM515.55 415.39V346.18H561.61V377.01H546.26V392.36H577.09V330.82H438.55V392.36H469.38V377.01H453.91V346.18H500.09V492.4H453.91V461.57H469.38V446.22H438.55V507.76H577.09V446.22H546.26V461.57H561.61V492.4H515.55V415.39ZM492.4 415.39V353.85H461.57V369.32H477.04V400.03H430.86V230.78H477.04V261.61H461.57V276.96H492.4V215.42H353.86V276.96H384.69V261.61H369.34V230.78H415.52V400.03H369.34V369.32H384.69V353.85H353.86V415.39H492.4ZM346.18 415.39V346.18H392.36V377.01H377.01V392.36H407.72V330.82H269.29V392.36H300V377.01H284.65V346.18H330.83V492.4H284.65V461.57H300V446.22H269.29V507.76H407.72V446.22H377.01V461.57H392.36V492.4H346.18V415.39ZM323.15 415.39V353.85H292.32V369.32H307.79V400.03H261.61V230.78H307.79V261.61H292.32V276.96H323.15V215.42H184.61V276.96H215.44V261.61H199.97V230.78H246.15V400.03H199.97V369.32H215.44V353.85H184.61V415.39H323.15ZM176.93 415.39V346.18H223.11V377.01H207.76V392.36H238.47V330.82H100.04V392.36H130.75V377.01H115.4V346.18H161.58V492.4H115.4V461.57H130.75V446.22H100.04V507.76H238.47V446.22H207.76V461.57H223.11V492.4H176.93V415.39ZM153.9 415.39V353.85H123.07V369.32H138.42V400.03H92.24V230.78H138.42V261.61H123.07V276.96H153.9V215.42H15.35V276.96H46.06V261.61H30.71V230.78H76.89V400.03H30.71V369.32H46.06V353.85H15.35V415.39H153.89H153.9ZM269.29 515.43V530.9H407.72V515.43H269.29ZM438.54 530.91V515.44H577.08V530.91H438.54ZM238.46 530.91V515.44H100.04V530.91H238.47H238.46ZM661.65 207.64V146.1H630.94V161.57H646.29V192.28H600.11V23.03H646.29V53.86H630.94V69.21H661.65V7.68H523.22V69.22H553.93V53.87H538.58V23.04H584.76V192.29H538.58V161.58H553.93V146.11H523.22V207.65H661.65V207.64ZM515.55 207.64V138.43H561.61V169.26H546.26V184.61H577.09V123.07H438.55V184.61H469.38V169.26H453.91V138.43H500.09V284.65H453.91V253.82H469.38V238.47H438.55V300.01H577.09V238.47H546.26V253.82H561.61V284.65H515.55V207.64ZM492.4 207.64V146.1H461.57V161.57H477.04V192.28H430.86V23.03H477.04V53.86H461.57V69.21H492.4V7.68H353.86V69.22H384.69V53.87H369.34V23.04H415.52V192.29H369.34V161.58H384.69V146.11H353.86V207.65H492.4V207.64ZM346.18 207.64V138.43H392.36V169.26H377.01V184.61H407.72V123.07H269.29V184.61H300V169.26H284.65V138.43H330.83V284.65H284.65V253.82H300V238.47H269.29V300.01H407.72V238.47H377.01V253.82H392.36V284.65H346.18V207.64ZM323.15 207.64V146.1H292.32V161.57H307.79V192.28H261.61V23.03H307.79V53.86H292.32V69.21H323.15V7.68H184.61V69.22H215.44V53.87H199.97V23.04H246.15V192.29H199.97V161.58H215.44V146.11H184.61V207.65H323.15V207.64ZM176.93 207.64V138.43H223.11V169.26H207.76V184.61H238.47V123.07H100.04V184.61H130.75V169.26H115.4V138.43H161.58V284.65H115.4V253.82H130.75V238.47H100.04V300.01H238.47V238.47H207.76V253.82H223.11V284.65H176.93V207.64ZM153.9 207.64V146.1H123.07V161.57H138.42V192.28H92.24V23.03H138.42V53.86H123.07V69.21H153.9V7.68H15.35V69.22H46.06V53.87H30.71V23.04H76.89V192.29H30.71V161.58H46.06V146.11H15.35V207.65H153.89L153.9 207.64ZM269.29 307.68V323.15H407.72V307.68H269.29ZM438.54 323.15V307.68H577.08V323.15H438.54ZM238.46 323.15V307.68H100.04V323.15H238.47H238.46ZM269.29 99.92V115.39H407.72V99.92H269.29ZM438.54 115.39V99.92H577.08V115.39H438.54ZM238.46 115.39V99.92H100.04V115.39H238.47H238.46Z" fill="#FFB830"/>
</svg>
