<svg width="304.28" height="304.27" viewBox="0 0 304.28 304.27" fill="none" xmlns="http://www.w3.org/2000/svg">
<path d="M296.69 267.73L304.28 275.32V289.29L296.69 281.7L282.56 295.84L290.99 304.27H277.02L268.59 295.84L296.69 267.73ZM139.82 296.71L147.38 304.27H161.35L153.79 296.71L167.93 282.58L189.63 304.27H203.6L167.93 268.6L139.82 296.71ZM0 289.29L14.98 304.27H28.95L0 275.32V289.29ZM290.99 0H277.02L294 16.99L279.86 31.13L248.73 0H234.76L235.16 0.4L279.86 45.1L304.28 20.68V13.3L290.99 0ZM304.28 156.9V132.26L291.96 144.58L304.28 156.9ZM279.42 73.22L235.87 116.77L196.62 77.51L210.75 63.38L236.17 88.79L264.28 60.68L219.58 15.98L203.6 0H189.63L205.61 15.98L147.81 73.78L74.03 0H60.05L140.82 80.77L83.02 138.56L45.34 100.89L59.48 86.75L84.9 112.16L113.01 84.05L59.78 30.83L9.24 81.36L0 90.6V104.58L3.25 101.33L16.23 88.35L59.78 44.8L99.03 84.05L84.9 98.19L59.48 72.77L31.37 100.89L83.02 152.54L127.72 197.23L155.83 169.13L130.42 143.71L144.55 129.57L183.81 168.82L140.26 212.37L127.28 225.35L83.73 268.9L44.48 229.65L58.61 215.51L84.03 240.93L112.14 212.81L67.44 168.12L15.79 116.47L0 132.26V156.9L13.09 169.99L0 183.09V197.07L27.07 169.99L1.65 144.58L15.79 130.44L53.47 168.12L0 221.59V235.55V244.22L60.05 304.27H74.02L2.69 232.93L60.49 175.14L98.17 212.81L84.03 226.96L58.61 201.54L30.5 229.65L83.73 282.87L134.27 232.34L147.25 219.36L197.78 168.82L144.55 115.59L116.44 143.71L141.86 169.13L127.72 183.26L90.04 145.59L147.84 87.79L292.96 232.9L235.16 290.7L197.48 253.02L211.62 238.88L237.04 264.3L265.15 236.19L211.92 182.96L161.38 233.5L148.4 246.48L97.87 297.02L105.12 304.27H119.09L111.84 297.02L155.39 253.47L168.37 240.48L211.92 196.93L251.17 236.19L237.04 250.33L211.62 224.91L183.51 253.02L228.21 297.72L234.76 304.27H248.73L242.18 297.72L299.98 239.92L304.28 244.22V221.59L299.95 225.92L154.83 80.8L212.63 23L250.31 60.68L236.17 74.82L210.75 49.4L182.64 77.51L235.87 130.74L286.41 80.2L299.39 67.22L304.28 62.33V48.36L292.4 60.24L279.42 73.22ZM250.01 144.88L303.24 198.11L304.28 197.07V183.09L303.24 184.13L263.98 144.88L304.28 104.58V90.6L300.54 94.34L250.01 144.88ZM179.21 17.86L161.35 0H147.38L165.23 17.86L151.1 32L119.09 0H105.12L151.1 45.97L179.21 17.86ZM0 13.3V20.68L3.69 16.99L0 13.3ZM28.95 0H14.98L31.67 16.69L0 48.36V62.33L45.64 16.69L28.95 0Z" fill="currentColor"/>
</svg>
